<?xml version="1.0" encoding="UTF-8"?>
<!DOCTYPE svg PUBLIC "-//W3C//DTD SVG 1.1//EN" "http://www.w3.org/Graphics/SVG/1.1/DTD/svg11.dtd">
<!-- Creator: CorelDRAW -->
<svg xmlns="http://www.w3.org/2000/svg" xml:space="preserve" width="64.5749mm" height="18.9401mm" version="1.1" style="shape-rendering:geometricPrecision; text-rendering:geometricPrecision; image-rendering:optimizeQuality; fill-rule:evenodd; clip-rule:evenodd"
viewBox="0 0 5537.61 1624.2"
 xmlns:xlink="http://www.w3.org/1999/xlink"
 xmlns:xodm="http://www.corel.com/coreldraw/odm/2003">
 <defs>
  <style type="text/css">
   <![CDATA[
    .fil1 {fill:#222A7E}
    .fil0 {fill:#2A99EF}
    .fil2 {fill:#575B5D}
   ]]>
  </style>
 </defs>
 <g id="Camada_x0020_1">
  <metadata id="CorelCorpID_0Corel-Layer"/>
  <path class="fil0" d="M831.88 1046.94c-111.52,-19.48 -203.14,-162.43 -180.16,-296.76 27.34,-159.79 192.03,-242.08 249.83,-218.43 4.32,13.18 4.24,20.18 -0.56,32.82 -43.53,18.92 -79.86,2.79 -151.76,67.01 -33.54,29.95 -66.94,76.78 -76.24,139.09 -10.17,68.15 7.91,136.95 39.05,179.46 20.82,28.43 27.19,35.88 53.56,56.53 25.97,20.32 41.73,25.41 66.27,40.29zm-403.54 -231.81c8.4,-7.62 20.59,-10.74 33.33,-18.75 55.15,-34.69 32.66,-97.61 43.16,-113.2 17.79,24.04 7.69,62.7 -4.71,86.43 -21.34,40.85 -36.03,31.53 -53.85,51.82 74.48,45.61 115.71,-5.51 135.46,-10.22 -3.72,48.13 -133.43,52.95 -153.39,3.91zm438.08 -0.78c-21.18,-15.23 -39.37,-29.52 -51.02,-57.11 -9.19,-21.79 -16.51,-73.02 7.27,-84.45 6.24,13.37 -11.93,51.1 6.53,87.01 19.92,38.74 30.38,26.54 54.3,51.26 -14.48,31.53 -80.81,48.09 -125.88,24.56 -30.43,-15.88 -26.83,-16.95 -28.06,-28.03 25.44,3.3 59.59,57.92 136.86,6.77zm-200.31 -230.18c-33.85,36.16 -72.34,9.24 -47.34,-42.07 15.51,-31.83 38.14,-57.26 67.09,-68.38 -12.4,14.73 -71.29,65.06 -54.83,109.15 14.85,10.81 16.67,9.75 35.07,1.3zm-161.17 10.84c37,56.08 91.48,38.55 109.02,44.82 -14,26.13 -72.21,2.29 -88.34,-8.46 -13.1,-8.73 -55.91,-46.66 -41.16,-72.84 12.49,6.69 13.57,26.04 20.48,36.49zm471.64 590.04c-183.32,60.34 -381.48,72.97 -561.49,-7.24 -174.49,-77.75 -255.91,-225.42 -254.15,-415.64 3.92,-424.25 426.42,-584.58 789.88,-462.21 3.9,20.92 -7.8,70.3 -10.43,96.03 -32.42,-7.94 -72.11,-30.18 -105.22,-41.56 -136.18,-46.85 -228.61,-57.11 -344.07,14.96 -113.08,70.6 -183.26,204.81 -179.44,396.86 5.85,294.08 194.36,437.9 453.92,415.55 103.45,-8.9 142.75,-29.04 211.84,-73.09l-0.83 76.35zm-939.3 -1073.62c-6.96,237.99 -0.37,532.64 -0.37,781.14 0,90.45 -3.37,152.53 33.87,226.25 59.8,118.34 153.06,202.32 247.73,273.87 49.27,37.26 99.86,71.51 156.14,104.62 21.88,12.87 150.77,88.11 169.53,89.54 33.35,2.55 283.34,-156.45 326.93,-191.22 94.75,-75.58 188.66,-153.09 248.85,-272.92 40.24,-80.1 35.74,-128.56 35.74,-226.06 0,-250.27 6.64,-546.24 -0.34,-786.04 -163.95,-2.38 -326.32,16.36 -483,-27.48 -23.16,-6.48 -120.47,-45.53 -125.41,-45.9 -4.93,-0.37 -108.07,36.46 -128.09,42.18 -195.22,55.74 -313.53,15.43 -481.59,32.02z"/>
  <path class="fil0" d="M23.17 97.13c192.58,-17.74 346.42,30.84 567.23,-56.23 83.32,-32.85 41.72,-21.97 125.84,8.57 170.1,61.75 351.91,47.11 530.64,45.95 18.61,-0.12 21.51,-2.05 23.62,14.44l-0.15 709.35c0,171.32 14.9,277.48 -109.53,419.62 -30.37,34.7 -98.69,105.29 -133.91,131.01 -57.76,42.17 -77.27,63.42 -153.81,110.97 -29,18.03 -203.49,125.97 -232.8,120.81 -31.95,-5.61 -200.49,-108.38 -229.22,-126.33 -83.75,-52.28 -128.31,-91.45 -198.3,-152.11 -53.27,-46.17 -115.49,-119.16 -155.3,-199.06 -47.85,-96.01 -34.99,-204.36 -34.99,-321.2 0,-118.17 0,-236.34 0,-354.51 0,-112.1 -5.93,-241.27 0.69,-351.27zm-19.93 -20.19c-7.13,252.2 -0.27,560.96 -0.27,823.76 0,99.48 -1.72,153.88 37.99,235.77 58.75,121.18 160.04,208.24 262.55,287.52 50.26,38.88 302.96,200.99 343.77,200.21 18.03,-0.34 158.61,-80.4 182.11,-93.27 91.72,-50.24 244.51,-165.8 309.75,-236.22 40.88,-44.12 87.88,-105.47 113.15,-159.92 40.46,-87.17 37.83,-133.78 37.83,-238.18l0.02 -818.32c-48.31,-6.28 -130.33,-1.44 -182.25,-1.44 -151.38,0 -254.56,8.01 -397.75,-49.68 -15.22,-6.13 -51.61,-27.07 -62.6,-27.18 -4.23,-0.04 -114.53,40.97 -136.67,47.02 -48.72,13.32 -98.73,23.82 -152.27,28.31 -106.41,8.93 -245.04,1.36 -355.37,1.6z"/>
  <g id="_2343657522592">
   <path class="fil1" d="M2336.78 872c9.17,15.45 66.43,197.91 71.11,223.46l-144.42 -0.32 73.31 -223.14zm391.87 -32.83c111.62,1.41 232.53,-25.61 232.21,76.45 -0.18,54.71 -27.76,71.73 -78.41,76.72 -44.99,4.42 -108.46,1.27 -155.46,0.9l1.66 -154.08zm-660.69 473.59l122.39 0.04c13.57,-29.51 30.75,-84.76 40.12,-117.74l212.83 0.04c9.32,33.48 24.23,88.88 37.57,117.55l244.91 -0.03c3.82,-65.32 1.04,-154.02 1.35,-223.24 121.72,-0.52 209.53,-20.17 216.33,68.73 4.39,57.5 -2.88,99.3 14.3,154.35l131.47 -1.09c-2.58,-29.74 -21.36,-10.25 -23.59,-70.4 -5.21,-140.3 9.57,-147.2 -70.64,-203.26 46.96,-28.87 79.74,-50.06 84.73,-122.15 4.95,-71.35 -30.79,-122.54 -68.68,-146.35 -53.57,-33.68 -115.76,-28.04 -187.58,-28.04 -42.91,0 -182.41,-5.09 -212.72,2.83l-0.17 558.45c-12.49,-9.47 -48.47,-123.96 -53.73,-138.53l-148.22 -422.78 -140.24 0.04c-9.6,41.42 -35.08,99.44 -49.69,142.15l-101.25 283.49c-9.47,25.8 -48.18,125.32 -49.46,145.92z"/>
   <path class="fil1" d="M2696.52 142.25c-6.75,-3.88 -4.49,7.2 -5.99,-10.07l172.8 1.37 1.84 470.77 118.7 -0.09 -0.44 -470.25 175.05 -2.03 -1.88 -97.85 -463.56 -0.58 -2.52 98.67c-24.37,-21.52 -38.38,-73.98 -135.24,-102.6 -205.61,-60.76 -380.09,93.93 -347.38,343.02 39.31,299.22 323.06,280.14 422.39,194.21 25.61,-22.15 87.93,-97.41 82.62,-157.69l-115.91 0.1c-14.06,42.26 -25.8,70.7 -54.03,88.48 -60.58,38.14 -150.69,24.53 -190.6,-54.49 -45.72,-90.53 -35.07,-269.99 66.84,-311.93 36.46,-15.01 88.99,-10.95 120,6.09 24.36,13.39 40.14,35.09 49.69,60.13 12.24,32.11 -2.89,23.38 126.62,23.36 -3.64,-33.86 -15.74,-55.66 -19,-78.61z"/>
   <path class="fil1" d="M3826.31 131.63c63.12,0.56 191.82,-14.96 220.22,28 15.55,23.52 19.62,69.54 -0.06,96.56 -30.38,41.73 -150.61,29.07 -220.26,29.01l0.1 -153.57zm-116.63 470.68c24.24,6.87 88.17,3.26 116.49,2.54l0.03 -222.71c281.76,-3.51 189.21,-1.51 228.83,222.74 16.16,0.41 119.11,5.3 133.9,-5.26 -6.5,-22.6 0.33,-2.61 -9.68,-14 -5.39,-6.13 -4,1.04 -9.85,-12.6 -7.09,-16.52 -5.41,-102.02 -7.8,-130.43 -2.42,-28.94 -3.75,-49.4 -18.04,-73 -13.63,-22.49 -29.2,-23.06 -50.7,-39.64 119,-51.28 108.67,-202.78 15.69,-268.88 -47.59,-33.83 -121.41,-27.58 -185.91,-27.58 -54.04,0 -164.67,-6.14 -211.96,1.54l-0.99 567.29z"/>
   <path class="fil1" d="M5198.39 830.48c184.53,-38.3 224.57,194.54 164.87,316.74 -61.01,124.89 -270.86,107.98 -284.87,-86.05 -8.33,-115.35 23.46,-210.65 120,-230.69zm-25.16 -99.39c-180.74,42.68 -235.59,189.21 -212.08,355.53 14.18,100.37 42.56,142.15 100.43,187.69 148.28,116.7 490.21,59.07 442.47,-305.41 -12.37,-94.45 -45.41,-150.4 -99.11,-189.08 -57.3,-41.28 -143.12,-69.66 -231.71,-48.73z"/>
   <path class="fil1" d="M3389.45 120.57c111.18,-18.01 170.93,75.71 175.09,176.58 4.71,113.77 -30.17,207.3 -131.77,220.68 -113.39,14.93 -174.24,-73.49 -178.04,-179.17 -4.16,-115.32 31.35,-201.35 134.72,-218.09zm-27.72 -98.66c-92.21,17.25 -138.73,52.71 -178.26,108.81 -41.58,59 -56.24,152.2 -46.05,237.7 11.6,97.43 38.08,145.95 94.89,193.3 52.24,43.55 141.38,69.83 231.13,55.08 39.73,-6.53 74.91,-20.5 103.1,-38.92 98.61,-64.42 133.33,-186.71 115.89,-311.39 -14.67,-104.81 -40.36,-140.48 -96.9,-190.8 -48.49,-43.13 -141.32,-69.21 -223.8,-53.79z"/>
   <path class="fil1" d="M4592.02 1058.17c4.41,-2.19 0.15,-1.84 9.09,-2.96 4.42,-0.55 8.28,-0.47 12.72,-0.52l87.38 0.32c29.86,0 84.98,-5.25 109.83,2.14 7.15,7.65 6.5,-16.04 5.64,14.22l-0.01 239.02 113.03 0.09 -0.74 -569.03 -115.78 0.19 0.09 215.27 -223.43 -0.14 0.03 -213.96 -116.04 -1.02 0.06 568.36 113.92 0.43c-0.38,-16.47 -6.17,-237.29 4.19,-252.41z"/>
   <path class="fil1" d="M3715.66 1095.42c4.73,-27.88 63.09,-210.54 73.45,-224.87l69.07 224.83 -142.52 0.03zm211.13 209.99l2.86 6.22 98.52 -0.74c32.38,-0.01 24.98,-2.56 28.29,-7.99l-197.73 -561.47 -137.59 -0.11 -204.6 570.2 125.6 1.31c4.8,-14.55 31.57,-114.41 46.94,-117.72l205.44 0.04 32.29 110.26z"/>
   <path class="fil1" d="M2090.5 1117.33l-118.94 -0.44c-36,160.19 -266.49,156.51 -268.63,-86.76 -1.48,-170.48 109.38,-236.1 208.75,-187.37 32.89,16.12 47.58,42.76 61.01,85.47l117.12 -0.03c3.96,-124.73 -142.55,-229.01 -299.86,-198.57 -134.09,25.95 -210.06,141.2 -208.68,300.51 3.58,414.63 491.64,353.63 509.22,87.18z"/>
   <path class="fil1" d="M1756.34 605.2l105.34 -0.16 196.22 -571.03 -125.63 -0.45 -122.8 432.94 -124.06 -431.9 -125.38 -1.2c0,25.92 145.7,439.02 178.03,538.78 5.14,15.82 5.19,25.67 18.29,33.02z"/>
   <path class="fil1" d="M3255.1 1312.43c142.67,4.14 106.86,20.02 159.82,-135.04 28.59,-83.71 132.11,-375.85 147.73,-436.15l-124.21 0.21 -91.69 321.99c-6.23,21.28 -21.1,89.38 -35.7,106.48l-120.2 -428.75 -127.8 0.92 192.05 570.34z"/>
   <polygon class="fil1" points="4462.24,1208.88 4180.84,1208.53 4180.92,741.13 4062.73,740.57 4062.78,1310.51 4462.58,1310.45 "/>
   <path class="fil1" d="M2058.67 604.61l120.35 0.64 -0.01 -571.65 -122.82 0.05c10.43,72.06 2.51,208.19 2.51,286.61 0,94.78 0.05,189.56 -0.03,284.35z"/>
  </g>
  <g id="_2343657531088">
   <path class="fil2" d="M4697.93 1561.27l0.05 -30.35c66.13,-13.22 65.02,44.22 -0.05,30.35zm0.65 -86.49c16.27,0.06 29.47,1.04 39.88,6.47 2.02,29.95 -10.26,24.58 -40.35,24.82l0.46 -31.29zm-31.73 113.53c26.56,1.02 77.16,3.85 95.45,-7.83 23.47,-15.01 21.19,-48.71 -5.2,-63.04l5.57 -7.49c0.69,-1.02 4.11,-5.7 4.9,-7.07 34.02,-59.63 -67.98,-53.56 -100.62,-52.73l-0.11 138.17z"/>
   <path class="fil2" d="M3837.25 1475.45c67.98,-3.27 74.52,43.06 46.02,85.44l-46.51 2.16 0.5 -87.6zm-32.43 110.27c136.87,38.22 157.01,-102.52 89.67,-129.27 -22.42,-8.89 -64.3,-10.4 -89.79,-3.72l0.12 132.99z"/>
   <path class="fil2" d="M1741.03 1474.83c38.69,0.09 60.25,2.82 59.88,44.22 -0.39,42.43 -20.47,44.51 -60.3,44.63l0.42 -88.85zm-31.78 112.29c66.09,9.04 124.58,0.92 125.09,-68.1 0.51,-69.75 -59.13,-75.85 -125.16,-67.75l0.07 135.85z"/>
   <path class="fil2" d="M2479.65 1474.83c39.57,-0.05 60.69,0.6 59.84,44.22 -0.77,39.54 -23.71,44.38 -60.05,44.69l0.21 -88.91zm-31.89 113.99c67.6,-0.01 124.38,5.8 124.81,-69.74 0.43,-74.83 -57.19,-69.08 -124.63,-69.34l-0.18 139.09z"/>
   <path class="fil2" d="M5035.68 1473.99l42.38 4.48c3.1,17.49 5.08,16.16 -3.28,30.75l-39.82 1.71 0.73 -36.94zm-32.67 54.88l0.03 59.96 31.71 -0.07 0.48 -52.24c45.36,-6.74 40.26,15.75 46.47,51.62l33.3 0.33c-7.24,-29.92 -4.94,-48.9 -25.55,-62.7l5.85 -5.99c12.85,-12.93 33.99,-35.4 5.77,-59.07 -20.98,-17.58 -69.33,-10.94 -97.95,-10.87l-0.11 79.02z"/>
   <path class="fil2" d="M4901.06 1510.81l0.03 -35.8c16.76,-0.22 31.51,0.75 42.76,5.89l2.04 23.98c-14.75,6.13 -25.88,6.04 -44.82,5.93zm-31.82 78.01l26.77 -0.03 5.22 -25.54c0.53,-9.73 -0.13,-17.73 0.78,-28.32l34.09 2 12.43 51.78 33.01 0.17c-9.7,-31.2 -4.6,-51.3 -26.33,-65.1 16.77,-14.63 42.57,-41.81 10.71,-64.74 -18.37,-13.23 -69.91,-9.22 -96.49,-9.3l-0.2 139.09z"/>
   <path class="fil2" d="M4422.56 1473.84c53.43,-21.06 65,75.72 26.51,91.86 -54.57,22.87 -71.54,-74.11 -26.51,-91.86zm78.39 69.68c30.62,-100.46 -109.57,-131.09 -132.94,-49.69 -30.24,105.32 107.3,133.78 132.94,49.69z"/>
   <path class="fil2" d="M4006.4 1473.16c57.49,-17.76 60.33,75.22 26.82,91.62 -57.22,28 -71.25,-77.89 -26.82,-91.62zm-55.82 70.36c18.08,78.01 162.52,60.46 134.12,-47.61 -19.95,-75.91 -160.46,-66 -134.12,47.61z"/>
   <path class="fil2" d="M3329.7 1533.76c-11.9,-71.65 61.49,-84.3 71.98,-28.4 13.36,71.13 -62.41,85.99 -71.98,28.4zm16.65 -83.4c-85.02,24.84 -59.62,165.7 42.48,138.58 78.34,-20.8 54.63,-166.96 -42.48,-138.58z"/>
   <path class="fil2" d="M2694.45 1538.64c-14.53,59.81 -87.06,24.18 -69.05,-39.51 14.54,-51.48 86.77,-33.48 69.05,39.51zm-48.43 -89.68c-85.92,13.58 -71.59,161.79 31.34,141.13 78.67,-15.8 69.38,-157.05 -31.34,-141.13z"/>
   <path class="fil2" d="M2256.29 1584.14l22.96 3.44 0.11 -69.32c-10.38,0.72 -18.87,0.42 -29.71,0.63 -3.15,0.06 -11.51,0.09 -14.25,0.6 -7.95,1.46 -7.68,2.56 -11.23,4.5 3.26,26.27 9.31,7.93 24.75,23.57 -11.06,23.48 -22.93,23.52 -50.48,16.4 -17.76,-12.69 -25.52,-105.59 30.24,-92.14 20.9,5.04 12.96,12.13 26.16,25.84l26.26 -0.51c-3.64,-69.86 -109.11,-62.76 -125.89,-4.66 -27.31,94.6 74.59,126.48 94.65,78.31l6.45 13.34z"/>
   <path class="fil2" d="M2098.44 1543.52c-20.14,52.16 -93.06,20.61 -65.81,-51.37 7.25,-19.15 33.44,-30.43 53.99,-14.91 13.29,10.02 20.32,44.27 11.82,66.28zm-51.32 -93.62c-39.23,8.81 -60.92,40.98 -49.42,92.17 7.6,33.84 44.26,58.19 88.13,47.24 78.6,-19.61 60.47,-161.68 -38.71,-139.41z"/>
   <path class="fil2" d="M2966.94 1483.63c10.71,14.6 11.45,22.45 15.71,42.07l-28.08 -2.25 12.37 -39.82zm-66.14 103.46l33.7 1.9 11.17 -37.76 45 -1.54c15.05,42.44 8.1,39.02 46.58,39.18l-48.34 -138.35 -35.94 -0.76c-16.67,20.99 -43.01,107.19 -52.18,137.32z"/>
   <path class="fil2" d="M4582.61 1481.36l11.96 43.98 -27.78 -0.3 15.81 -43.68zm-42.98 107.45c12.21,-8.47 14.64,-24.9 20.24,-38.88l43.42 -0.25 12.52 39.6 33.97 -2.97c-13.27,-35 -31.54,-109.55 -51.56,-136.5l-35.95 0.58 -48.46 138.38 25.83 0.03z"/>
   <path class="fil2" d="M1609.71 1525.34c3.99,-17.02 5.63,-27.93 16,-41.71l11.91 40.27 -27.91 1.44zm-54.93 63.27l31.21 -0.32 16.08 -38.24 44.29 0.55 12 37.83 33.84 -0.32 -48.22 -137.89 -40.13 -0.56 -49.07 138.94z"/>
   <path class="fil2" d="M2361.14 1484.78c10.18,12.97 10.14,20.91 15.86,40.73l-28.68 -1.67 12.83 -39.06zm-20.93 65.58l44.64 -0.17 16.44 38.49 30.4 -0.44 -47.88 -138.57 -40.5 0.8 -49.01 138.25 33.29 -0.77 12.61 -37.59z"/>
   <path class="fil2" d="M2784.73 1473.16c18.75,-8.22 22.13,-0.75 31.13,7.12 10.31,9.01 -1.9,11.38 36.73,11.83 -20.34,-105.08 -164.91,-3.48 -76.54,33.08 29.11,12.04 47.44,4.27 44.31,37.03 -39.78,18.42 -25.3,-6.84 -53.54,-14.06 -8.34,-2.13 -14.79,-0.5 -22.94,0.23 4.7,27.99 14.29,38.21 44.71,42.45 73.46,10.24 88.38,-60.46 39.88,-78.99 -27.11,-10.35 -49.46,-4.27 -43.75,-38.69z"/>
   <path class="fil2" d="M3245.83 1562.67c-47.63,19.9 -17.99,-22.15 -76.59,-13.7 12.1,63.23 94.34,45.9 107.3,19.98 14.18,-28.38 -4.63,-47.94 -23.85,-56.65 -25.73,-11.67 -47.92,-6.16 -42.7,-38.8 46.7,-9.47 10.69,18.06 67.95,18.59 -5.95,-27.39 -12.98,-39.07 -39.03,-43.45 -24.72,-4.16 -51.49,4.86 -59.03,19.5 -14.58,28.3 1.33,48.36 21.16,56.82 30.38,12.97 47.32,3.56 44.78,37.7z"/>
   <path class="fil2" d="M4101.41 1548.54c19.47,76.87 135.72,43.56 107.06,-15.68 -14.2,-29.37 -62.98,-22.56 -66.84,-44.86 -2.73,-15.74 14.77,-20.5 26.42,-13.03 22.52,14.42 -6.94,17.25 42.15,16.93 -13.56,-68.48 -93.3,-48.46 -101.84,-13.69 -16.62,67.73 75.11,30.86 69.18,84.46 -47.52,22.16 -15.21,-20.54 -76.13,-14.12z"/>
   <path class="fil2" d="M3121.32 1564.82c-53.54,15.08 -17.34,-18.14 -75.56,-17.38 7.6,56.76 83.62,54.62 105.08,22.75 16.16,-24.01 -0.31,-47.81 -17.07,-56.12 -28.5,-14.14 -51.11,-2.2 -48.55,-38.65 5.92,-2.07 8.76,-3.77 15.02,-3.76 31.25,0.08 -2.95,20.84 52.75,20.05 -8.46,-60.66 -85.09,-52.95 -99.33,-17.87 -27.16,67 79.44,40.29 67.67,90.98z"/>
   <path class="fil2" d="M3721.6 1481.41l12 43.41 -28.21 0.1 16.22 -43.51zm-30.06 87.83c2.12,-5.26 3.73,-10.93 6.4,-18.75l44.01 -0.1 16.54 38.17 29.57 0.31c-5.6,-25.07 -38,-127.74 -53.97,-139.12l-29.29 0.15 -52.12 138.99 27.72 -0.13 11.16 -19.52z"/>
   <path class="fil2" d="M3553.46 1540.29c-12.98,14.61 -13.65,34.07 -42.11,26.76 -35.26,-9.06 -34.92,-85.04 0.43,-94.83 29.28,-8.1 30.86,11.51 41.69,25.43l27.06 -0.44c-5.79,-71.39 -131.05,-70.78 -128.07,26.46 2.64,86.03 118.66,93.26 127.76,16.91l-26.74 -0.28z"/>
   <path class="fil2" d="M5330.52 1494.34c5.76,-9.21 13.28,-38.45 34.08,-19.14 23.92,22.21 -24.83,60.55 -41.65,75.44 -16.47,14.6 -21.78,12.79 -23.68,38.22l104.43 -0.22 -0.45 -20.7c-13.67,-7.63 -30.73,-2.58 -51.02,-6.31 99.51,-81.19 35.79,-127.29 -17.4,-111.54 -21.49,6.37 -28.4,18.54 -32.48,44.47l28.16 -0.21z"/>
   <path class="fil2" d="M1896.38 1588.57c39.65,0.56 38.88,5.62 50.78,-30.65 3.54,-10.82 8.28,-22.81 12.95,-35.73 8.55,-23.68 17.94,-48.91 25.17,-71.38l-32.9 -0.97 -33.87 109.82c-17.82,-27.46 -23.41,-84.24 -39.58,-109.2l-30.49 -0.81 47.96 138.91z"/>
   <path class="fil2" d="M5427.74 1455.64l0.55 19.17 69.2 0.03 -58.37 111.63 35.19 2.81c13.45,-36.33 62.56,-103.54 63.31,-139.47 -18.59,-0.04 -37.2,0.07 -55.79,-0.06 -16.77,-0.11 -40.68,-3.89 -54.09,5.9z"/>
   <path class="fil2" d="M5182.94 1474.43l0.37 28.57 40.42 -18.95 0.32 103.37 31.5 0.33 -0.06 -135.81c-32.18,-5.93 -50.09,13.25 -72.54,22.48z"/>
   <polygon class="fil2" points="3604.9,1588.81 3637.13,1588.57 3637.05,1450.13 3605.06,1449.69 "/>
   <path class="fil2" d="M4785.13 1595.55c23.21,-0.53 19.96,-7.36 26.79,-28.87l39.94 -122.03c-26.11,0.05 -20.55,5.58 -28.61,31.04l-38.13 119.85z"/>
   <path class="fil2" d="M2248.91 1547.56c-15.44,-15.63 -21.49,2.7 -24.75,-23.57 3.56,-1.94 3.28,-3.04 11.23,-4.5 2.74,-0.51 11.11,-0.54 14.25,-0.6 10.85,-0.21 19.34,0.09 29.71,-0.63l-0.11 69.32 -22.96 -3.44c9.67,9.55 20.67,12.17 24.79,0.52l3.13 -11.54c7.48,-65.38 -9.81,-59.62 -34.32,-59.27 -16.18,0.22 -16.23,-1.57 -30.56,5.23l0.46 19.55c14.6,11.23 8.29,6.88 29.11,8.92z"/>
   <path class="fil2" d="M4261.84 1528.87c4.56,13.64 -3.75,12.77 23.91,12.94 29.47,0.19 19.72,0.6 24.23,-12.94 -12.13,-8.01 -36.39,-7.74 -48.14,0z"/>
  </g>
 </g>
</svg>
