<?xml version="1.0" encoding="UTF-8"?>
<!DOCTYPE svg PUBLIC "-//W3C//DTD SVG 1.1//EN" "http://www.w3.org/Graphics/SVG/1.1/DTD/svg11.dtd">
<!-- Creator: CorelDRAW -->
<svg xmlns="http://www.w3.org/2000/svg" xml:space="preserve" width="72.4426mm" height="23.9072mm" version="1.1" style="shape-rendering:geometricPrecision; text-rendering:geometricPrecision; image-rendering:optimizeQuality; fill-rule:evenodd; clip-rule:evenodd"
viewBox="0 0 7065.71 2331.8"
 xmlns:xlink="http://www.w3.org/1999/xlink"
 xmlns:xodm="http://www.corel.com/coreldraw/odm/2003">
 <defs>
  <style type="text/css">
   <![CDATA[
    .fil2 {fill:none}
    .fil0 {fill:#020842}
    .fil1 {fill:#0F72E1}
   ]]>
  </style>
 </defs>
 <g id="Camada_x0020_1">
  <metadata id="CorelCorpID_0Corel-Layer"/>
  <path class="fil0" d="M1188.04 1495.17c-159.28,-27.84 -290.12,-231.98 -257.3,-423.82 39.04,-228.19 274.24,-345.72 356.79,-311.95 6.16,18.83 6.06,28.82 -0.81,46.87 -62.16,27.02 -114.06,3.99 -216.72,95.7 -47.9,42.78 -95.6,109.65 -108.88,198.64 -14.52,97.32 11.29,195.58 55.77,256.29 29.74,40.58 38.84,51.24 76.5,80.72 37.08,29.03 59.59,36.29 94.65,57.55zm-576.33 -331.06c12,-10.88 29.42,-15.33 47.61,-26.77 78.77,-49.54 46.63,-139.4 61.64,-161.66 25.42,34.33 10.99,89.56 -6.72,123.45 -30.49,58.33 -51.46,45.03 -76.92,74.01 106.36,65.12 165.25,-7.88 193.45,-14.6 -5.31,68.74 -190.56,75.61 -219.06,5.58zm625.64 -1.12c-30.26,-21.74 -56.23,-42.15 -72.87,-81.56 -13.14,-31.11 -23.57,-104.28 10.39,-120.6 8.91,19.1 -17.04,72.99 9.31,124.26 28.45,55.31 43.39,37.89 77.56,73.2 -20.69,45.04 -115.41,68.68 -179.78,35.08 -43.47,-22.69 -38.32,-24.2 -40.09,-40.05 36.35,4.72 85.11,82.72 195.47,9.67zm-286.08 -328.71c-48.33,51.64 -103.32,13.2 -67.6,-60.1 22.15,-45.45 54.48,-81.76 95.83,-97.64 -17.71,21.04 -101.81,92.91 -78.31,155.88 21.21,15.43 23.81,13.92 50.08,1.86zm-230.16 15.47c52.84,80.08 130.65,55.05 155.7,64.01 -19.98,37.31 -103.13,3.26 -126.15,-12.09 -18.72,-12.47 -79.85,-66.65 -58.79,-104.03 17.84,9.56 19.4,37.18 29.25,52.11zm673.56 842.65c-261.79,86.17 -544.8,104.22 -801.88,-10.33 -249.17,-111.03 -365.46,-321.93 -362.96,-593.6 5.61,-605.9 608.98,-834.86 1128.06,-660.1 5.56,29.88 -11.15,100.39 -14.9,137.14 -46.3,-11.33 -102.99,-43.09 -150.26,-59.35 -194.49,-66.9 -326.49,-81.57 -491.38,21.37 -161.5,100.81 -261.73,292.48 -256.27,566.75 8.36,419.99 277.58,625.38 648.25,593.46 147.75,-12.72 203.87,-41.46 302.54,-104.38l-1.19 109.03zm-1341.43 -1533.26c-9.95,339.87 -0.53,760.68 -0.53,1115.56 0,129.19 -4.82,217.84 48.38,323.11 85.39,169 218.6,288.94 353.78,391.12 70.38,53.21 142.63,102.12 222.99,149.4 31.26,18.39 215.32,125.84 242.11,127.88 47.63,3.63 404.64,-223.43 466.9,-273.1 135.32,-107.93 269.43,-218.63 355.4,-389.77 57.47,-114.4 51.03,-183.6 51.03,-322.83 0,-357.42 9.48,-780.11 -0.48,-1122.57 -234.14,-3.38 -466.03,23.38 -689.78,-39.23 -33.09,-9.27 -172.04,-65.03 -179.09,-65.54 -7.05,-0.54 -154.34,52.06 -182.94,60.24 -278.8,79.6 -447.76,22.03 -687.78,45.73z"/>
  <path class="fil0" d="M3035.51 1318.14c11.65,19.63 84.41,251.48 90.35,283.94l-183.49 -0.4 93.15 -283.54zm497.93 -41.71c141.83,1.78 295.46,-32.54 295.05,97.14 -0.22,69.51 -35.27,91.15 -99.64,97.49 -57.16,5.63 -137.82,1.61 -197.52,1.15l2.11 -195.77zm-839.49 601.75l155.51 0.05c17.24,-37.49 39.07,-107.69 50.98,-149.6l270.43 0.05c11.84,42.54 30.78,112.93 47.73,149.37l311.19 -0.03c4.87,-82.99 1.32,-195.7 1.73,-283.65 154.66,-0.66 266.23,-25.62 274.87,87.34 5.58,73.05 -3.66,126.15 18.17,196.11l167.04 -1.39c-3.27,-37.79 -27.13,-13.02 -29.97,-89.46 -6.62,-178.28 12.16,-187.03 -89.76,-258.25 59.67,-36.69 101.32,-63.61 107.66,-155.21 6.28,-90.67 -39.13,-155.71 -87.26,-185.96 -68.08,-42.8 -147.09,-35.63 -238.35,-35.63 -54.53,0 -231.77,-6.48 -270.3,3.59l-0.21 709.6c-15.87,-12.04 -61.59,-157.51 -68.27,-176.02l-188.34 -537.2 -178.19 0.05c-12.2,52.63 -44.58,126.36 -63.14,180.62l-128.66 360.21c-12.03,32.77 -61.2,159.25 -62.84,185.41z"/>
  <path class="fil0" d="M3492.62 390.89c-8.58,-4.94 -5.73,9.16 -7.61,-12.79l219.55 1.75 2.34 598.17 150.84 -0.12 -0.57 -597.52 222.43 -2.58 -2.38 -124.33 -589.03 -0.74 -3.19 125.37c-30.97,-27.34 -48.77,-93.99 -171.84,-130.37 -261.27,-77.19 -482.97,119.34 -441.39,435.86 49.94,380.21 410.5,355.96 536.71,246.77 32.53,-28.15 111.73,-123.78 104.98,-200.38l-147.29 0.14c-17.86,53.68 -32.77,89.82 -68.66,112.42 -76.97,48.46 -191.48,31.16 -242.18,-69.23 -58.1,-115.03 -44.55,-343.07 84.91,-396.35 46.34,-19.07 113.08,-13.92 152.48,7.73 30.96,17.02 51.01,44.58 63.13,76.4 15.55,40.8 -3.67,29.71 160.88,29.69 -4.63,-43.02 -20.01,-70.73 -24.14,-99.9z"/>
  <path class="fil0" d="M4928.18 377.4c80.18,0.71 243.72,-19.01 279.81,35.58 19.76,29.89 24.93,88.36 -0.08,122.7 -38.6,53.01 -191.36,36.93 -279.87,36.85l0.14 -195.13zm-148.2 598.07c30.8,8.73 112.03,4.15 148.02,3.23l0.03 -282.97c358.01,-4.47 240.41,-1.92 290.75,283.01 20.54,0.53 151.36,6.74 170.13,-6.67 -8.25,-28.71 0.43,-3.32 -12.3,-17.8 -6.85,-7.79 -5.08,1.32 -12.52,-16.01 -9,-20.99 -6.87,-129.62 -9.89,-165.73 -3.08,-36.77 -4.77,-62.76 -22.94,-92.76 -17.3,-28.59 -37.09,-29.3 -64.41,-50.38 151.2,-65.16 138.07,-257.66 19.95,-341.64 -60.46,-42.98 -154.27,-35.04 -236.23,-35.04 -68.66,0 -209.24,-7.8 -269.31,1.95l-1.27 720.81z"/>
  <path class="fil0" d="M6671.58 1265.39c234.46,-48.66 285.34,247.19 209.49,402.47 -77.52,158.69 -344.15,137.19 -361.96,-109.35 -10.58,-146.58 29.82,-267.67 152.48,-293.12zm-31.98 -126.29c-229.64,54.23 -299.35,240.41 -269.47,451.74 18.03,127.53 54.08,180.63 127.61,238.49 188.41,148.27 622.87,75.05 562.21,-388.06 -15.71,-120.01 -57.69,-191.09 -125.93,-240.25 -72.81,-52.45 -181.85,-88.51 -294.42,-61.93z"/>
  <path class="fil0" d="M4373.08 363.35c141.26,-22.88 217.18,96.21 222.48,224.37 5.98,144.57 -38.33,263.4 -167.43,280.4 -144.09,18.97 -221.4,-93.37 -226.24,-227.66 -5.28,-146.54 39.84,-255.84 171.19,-277.12zm-35.22 -125.36c-117.17,21.92 -176.28,66.99 -226.5,138.26 -52.84,74.97 -71.46,193.38 -58.52,302.04 14.75,123.79 48.4,185.45 120.57,245.61 66.38,55.33 179.64,88.73 293.68,69.98 50.48,-8.3 95.18,-26.03 131.01,-49.45 125.29,-81.85 169.42,-237.24 147.26,-395.65 -18.64,-133.18 -51.27,-178.52 -123.13,-242.43 -61.6,-54.81 -179.56,-87.96 -284.37,-68.35z"/>
  <path class="fil0" d="M5901.11 1554.7c5.6,-2.78 0.19,-2.35 11.55,-3.76 5.62,-0.7 10.52,-0.59 16.16,-0.66l111.03 0.4c37.94,0 107.98,-6.66 139.56,2.73 9.08,9.72 8.25,-20.38 7.17,18.05l-0.02 303.72 143.63 0.12 -0.95 -723.03 -147.1 0.24 0.12 273.53 -283.91 -0.17 0.04 -271.87 -147.43 -1.3 0.08 722.17 144.73 0.55c-0.47,-20.93 -7.83,-301.51 5.34,-320.72z"/>
  <path class="fil0" d="M4787.58 1602.04c6.01,-35.43 80.16,-267.52 93.32,-285.73l87.76 285.69 -181.08 0.04zm268.26 266.81l3.63 7.9 125.18 -0.94c41.15,0 31.75,-3.25 35.94,-10.15l-251.24 -713.42 -174.83 -0.15 -259.97 724.52 159.59 1.67c6.11,-18.49 40.12,-145.38 59.64,-149.59l261.04 0.06 41.02 140.1z"/>
  <path class="fil0" d="M2722.6 1629.87l-151.14 -0.56c-45.73,203.55 -338.61,198.86 -341.32,-110.23 -1.89,-216.63 138.98,-300.01 265.25,-238.07 41.79,20.48 60.45,54.33 77.53,108.61l148.82 -0.05c5.02,-158.49 -181.13,-290.99 -381.02,-252.3 -170.38,32.98 -266.91,179.41 -265.15,381.83 4.55,526.86 624.7,449.34 647.04,110.78z"/>
  <path class="fil0" d="M2298 979.14l133.86 -0.21 249.31 -725.57 -159.63 -0.58 -156.04 550.11 -157.64 -548.78 -159.31 -1.53c-0.01,32.94 185.12,557.83 226.2,684.59 6.53,20.11 6.59,32.62 23.24,41.97z"/>
  <path class="fil0" d="M4202.37 1877.78c181.28,5.26 135.78,25.42 203.07,-171.59 36.33,-106.36 167.86,-477.57 187.72,-554.19l-157.82 0.27 -116.51 409.13c-7.91,27.04 -26.8,113.57 -45.36,135.3l-152.73 -544.78 -162.39 1.16 244.02 724.7z"/>
  <path class="fil0" d="M33.09 138.7c275.03,-25.34 494.74,44.04 810.08,-80.3 118.99,-46.91 59.58,-31.38 179.71,12.23 242.93,88.19 502.58,67.28 757.83,65.63 26.57,-0.18 30.71,-2.94 33.73,20.62l-0.21 1013.04c0,244.67 21.26,396.28 -156.43,599.27 -43.38,49.57 -140.94,150.37 -191.25,187.1 -82.48,60.22 -110.35,90.56 -219.66,158.48 -41.41,25.74 -290.61,179.89 -332.47,172.54 -45.64,-8.02 -286.32,-154.79 -327.36,-180.41 -119.6,-74.68 -183.24,-130.61 -283.19,-217.24 -76.09,-65.93 -164.93,-170.19 -221.8,-284.29 -68.33,-137.12 -49.97,-291.85 -49.97,-458.73 0,-168.76 0,-337.52 0,-506.29 0,-160.08 -8.47,-344.56 0.99,-501.65zm-28.47 -28.82c-10.17,360.17 -0.37,801.13 -0.37,1176.43 0,142.07 -2.45,219.77 54.25,336.7 83.9,173.06 228.56,297.39 374.95,410.61 71.79,55.53 432.69,287.05 490.96,285.93 25.74,-0.5 226.52,-114.83 260.08,-133.2 130.98,-71.74 349.2,-236.78 442.36,-337.35 58.38,-63.02 125.51,-150.62 161.61,-228.39 57.77,-124.48 54.02,-191.05 54.02,-340.13l0.03 -1168.67c-69.01,-8.96 -186.13,-2.05 -260.28,-2.05 -216.19,0 -363.53,11.43 -568.03,-70.96 -21.74,-8.76 -73.7,-38.65 -89.4,-38.81 -6.04,-0.06 -163.56,58.51 -195.19,67.15 -69.57,19.02 -141,34.02 -217.46,40.43 -151.97,12.75 -349.95,1.94 -507.52,2.29z"/>
  <polygon class="fil0" points="5736.2,1746.19 5378.64,1745.75 5378.76,1151.85 5228.57,1151.15 5228.63,1875.34 5736.64,1875.26 "/>
  <path class="fil0" d="M2682.15 978.39l152.92 0.81 -0.01 -726.36 -156.06 0.07c13.25,91.57 3.19,264.53 3.19,364.18 0,120.43 0.07,240.86 -0.04,361.3z"/>
  <path class="fil1" d="M6479.34 565.04l46.29 2.88c6.06,33.66 -9.67,39.57 -45.96,33.72l-0.33 -36.6zm-33.02 121.3l32.76 -1.39 0.38 -57.65 34.13 0.75c9.17,15.57 11.47,33.59 16.45,57.17l35.28 1.49c-10.12,-33.34 -3.42,-49.53 -26.95,-67.1l13.98 -13.99c17.13,-21.02 11.92,-44.98 -2.14,-56.39 -20.82,-16.89 -75.57,-11.27 -103.85,-10.61l-0.05 147.73z"/>
  <path class="fil1" d="M6278.66 1056.91c-69.57,-13.91 -160.73,9.14 -282.79,-93.21 -187.26,-157.02 -250.73,-463.4 -47.26,-653.33 18.8,-17.55 75.57,-66.13 111.67,-73.98 -34.99,9.94 -91.99,49.47 -115.5,70.54 -30.56,27.36 -61.66,61.08 -87.43,104.3 -137.33,230.32 30.03,670.35 421.31,645.68z"/>
  <path class="fil1" d="M6334.5 572.97l12.37 43.48 -29.07 -0.08 16.7 -43.4zm-73.66 113.19l34.4 0.27 13.17 -41.11 45.7 -0.5 17.01 41.65 34.4 -0.6c-7.03,-30.29 -41.12,-124.01 -54.17,-147.47l-35.86 -0.18c-11.07,19.17 -49.98,123.22 -54.64,147.94z"/>
  <path class="fil1" d="M6515.85 971.53l50.27 -32.04c113.86,-103.76 148.8,-288.72 113.3,-438.14 -41.12,-173.02 -193.85,-310.46 -355.92,-308.62 36.9,16.51 193.51,18.87 294.19,189.8 68.68,116.61 79.29,273.54 36.52,400.8 -21.58,64.25 -83.07,162 -138.35,188.19z"/>
  <path class="fil1" d="M6227.16 634.64c-51.66,-0.06 -21.22,-2 -51.66,28.31 -59.89,0.4 -60.92,-66.02 -33.73,-95.52 13.57,-6.43 23.86,-12.41 40.02,0.4 24.85,19.7 -6.16,19.86 45.72,19.99 -13.75,-83.12 -134.7,-64.32 -135.76,23.41 -1.15,95.21 119.94,104.53 135.41,23.4z"/>
  <path class="fil1" d="M5964.06 686.33l40.96 0.14c10.21,-29.35 48.6,-122.5 49.81,-148.19l-29.63 0.14 -39.38 117.61c-43.15,-83.36 -3.88,-116.82 -71.84,-118.08l50.08 148.38z"/>
  <polyline class="fil2" points="6525.63,567.92 6479.34,565.04 6479.67,601.64 "/>
  <g id="_2344240952688">
   <path class="fil1" d="M5972.5 2290.94l0.07 -36.18c78.83,-15.76 77.5,52.71 -0.07,36.18zm0.78 -103.09c19.39,0.07 35.12,1.24 47.54,7.72 2.42,35.71 -12.22,29.29 -48.09,29.58l0.56 -37.3zm-37.82 135.33c31.66,1.22 91.99,4.59 113.78,-9.34 27.98,-17.88 25.26,-58.05 -6.19,-75.13l6.64 -8.94c0.82,-1.21 4.9,-6.8 5.83,-8.43 40.56,-71.07 -81.02,-63.85 -119.93,-62.85l-0.14 164.7z"/>
   <path class="fil1" d="M4946.58 2188.65c81.02,-3.89 88.83,51.31 54.84,101.84l-55.44 2.57 0.59 -104.41zm-38.66 131.44c163.15,45.56 187.16,-122.2 106.89,-154.09 -26.72,-10.6 -76.65,-12.4 -107.04,-4.43l0.15 158.51z"/>
   <path class="fil1" d="M2447.89 2187.9c46.11,0.1 71.83,3.36 71.38,52.72 -0.46,50.58 -24.4,53.05 -71.87,53.2l0.5 -105.91zm-37.88 133.85c78.78,10.78 148.51,1.09 149.11,-81.18 0.6,-83.14 -70.49,-90.42 -149.19,-80.76l0.08 161.94z"/>
   <path class="fil1" d="M3328.32 2187.9c47.17,-0.07 72.34,0.72 71.34,52.72 -0.93,47.13 -28.28,52.89 -71.59,53.26l0.25 -105.98zm-38.01 135.89c80.58,-0.02 148.25,6.91 148.77,-83.14 0.51,-89.2 -68.18,-82.35 -148.56,-82.65l-0.21 165.79z"/>
   <path class="fil1" d="M6375.1 2186.9l50.51 5.34c3.7,20.84 6.06,19.26 -3.91,36.65l-47.47 2.04 0.87 -44.04zm-38.95 65.43l0.03 71.46 37.79 -0.08 0.58 -62.27c54.07,-8.05 48,18.77 55.4,61.53l39.69 0.38c-8.63,-35.67 -5.89,-58.28 -30.45,-74.73l6.96 -7.13c15.31,-15.42 40.53,-42.2 6.89,-70.41 -25.01,-20.96 -82.64,-13.04 -116.76,-12.95l-0.13 94.2z"/>
   <path class="fil1" d="M6214.63 2230.8l0.03 -42.68c19.98,-0.26 37.57,0.9 50.97,7.02l2.43 28.59c-17.58,7.31 -30.85,7.19 -53.43,7.07zm-37.92 92.99l31.91 -0.03 6.22 -30.44c0.63,-11.61 -0.16,-21.14 0.94,-33.78l40.62 2.38 14.83 61.72 39.34 0.21c-11.55,-37.2 -5.47,-61.14 -31.38,-77.6 19.99,-17.44 50.75,-49.84 12.78,-77.18 -21.91,-15.76 -83.33,-10.98 -115.03,-11.08l-0.22 165.79z"/>
   <path class="fil1" d="M5644.26 2186.73c63.69,-25.11 77.48,90.26 31.6,109.49 -65.05,27.26 -85.28,-88.34 -31.6,-109.49zm93.45 83.05c36.5,-119.75 -130.61,-156.27 -158.47,-59.23 -36.04,125.54 127.91,159.47 158.47,59.23z"/>
   <path class="fil1" d="M5148.2 2185.91c68.53,-21.17 71.91,89.66 31.97,109.21 -68.22,33.38 -84.92,-92.85 -31.97,-109.21zm-66.54 83.87c21.56,92.99 193.72,72.06 159.87,-56.76 -23.77,-90.48 -191.26,-78.67 -159.87,56.76z"/>
   <path class="fil1" d="M4341.57 2258.15c-14.18,-85.4 73.29,-100.48 85.81,-33.85 15.92,84.78 -74.4,102.51 -85.81,33.85zm19.85 -99.41c-101.34,29.61 -71.06,197.51 50.64,165.19 93.37,-24.8 65.11,-199.02 -50.64,-165.19z"/>
   <path class="fil1" d="M3584.36 2263.97c-17.31,71.29 -103.77,28.81 -82.31,-47.1 17.34,-61.36 103.44,-39.9 82.31,47.1zm-57.72 -106.91c-102.41,16.2 -85.33,192.86 37.37,168.23 93.77,-18.83 82.69,-187.21 -37.37,-168.23z"/>
   <path class="fil1" d="M3062.08 2318.2l27.37 4.1 0.13 -82.63c-12.37,0.86 -22.48,0.51 -35.42,0.75 -3.76,0.08 -13.71,0.12 -16.98,0.72 -9.48,1.75 -9.15,3.05 -13.4,5.37 3.89,31.31 11.1,9.45 29.5,28.09 -13.19,27.98 -27.33,28.03 -60.18,19.56 -21.17,-15.13 -30.42,-125.88 36.04,-109.83 24.92,6 15.46,14.45 31.19,30.79l31.3 -0.61c-4.33,-83.28 -130.06,-74.8 -150.05,-5.56 -32.57,112.77 88.9,150.77 112.81,93.36l7.69 15.9z"/>
   <path class="fil1" d="M2873.92 2269.78c-24,62.17 -110.93,24.56 -78.44,-61.23 8.64,-22.82 39.85,-36.26 64.36,-17.77 15.83,11.95 24.21,52.76 14.07,79zm-61.16 -111.6c-46.76,10.5 -72.62,48.86 -58.91,109.86 9.06,40.34 52.76,69.37 105.06,56.32 93.69,-23.38 72.08,-192.72 -46.14,-166.18z"/>
   <path class="fil1" d="M3909.16 2198.39c12.78,17.41 13.65,26.76 18.74,50.15l-33.46 -2.68 14.73 -47.47zm-78.83 123.33l40.17 2.27 13.32 -45.01 53.64 -1.83c17.94,50.59 9.67,46.51 55.53,46.71l-57.62 -164.91 -42.85 -0.91c-19.87,25.02 -51.25,127.77 -62.19,163.68z"/>
   <path class="fil1" d="M5835.04 2195.69l14.26 52.43 -33.11 -0.36 18.85 -52.07zm-51.24 128.08c14.55,-10.09 17.45,-29.68 24.12,-46.35l51.75 -0.29 14.92 47.21 40.49 -3.54c-15.81,-41.72 -37.59,-130.59 -61.46,-162.7l-42.86 0.69 -57.76 164.95 30.79 0.03z"/>
   <path class="fil1" d="M2291.37 2248.11c4.75,-20.29 6.7,-33.3 19.07,-49.71l14.19 48 -33.26 1.72zm-65.48 75.41l37.21 -0.38 19.17 -45.58 52.79 0.66 14.31 45.08 40.34 -0.38 -57.49 -164.36 -47.83 -0.66 -58.49 165.61z"/>
   <path class="fil1" d="M3187.06 2199.76c12.13,15.45 12.08,24.92 18.9,48.55l-34.2 -1.99 15.29 -46.56zm-24.95 78.16l53.21 -0.2 19.6 45.88 36.23 -0.53 -57.07 -165.18 -48.29 0.96 -58.41 164.79 39.68 -0.91 15.05 -44.81z"/>
   <path class="fil1" d="M3691.98 2185.91c22.36,-9.81 26.38,-0.91 37.11,8.49 12.28,10.74 -2.27,13.57 43.78,14.08 -24.25,-125.25 -196.57,-4.15 -91.23,39.44 34.69,14.35 56.55,5.09 52.82,44.13 -47.41,21.96 -30.15,-8.15 -63.82,-16.75 -9.94,-2.55 -17.62,-0.59 -27.34,0.27 5.6,33.37 17.03,45.55 53.29,50.59 87.57,12.21 105.35,-72.06 47.55,-94.14 -32.31,-12.35 -58.96,-5.1 -52.16,-46.12z"/>
   <path class="fil1" d="M4241.61 2292.61c-56.78,23.73 -21.45,-26.4 -91.29,-16.33 14.42,75.37 112.45,54.72 127.9,23.82 16.9,-33.83 -5.52,-57.14 -28.43,-67.52 -30.67,-13.91 -57.12,-7.34 -50.88,-46.25 55.65,-11.28 12.73,21.54 80.99,22.16 -7.1,-32.64 -15.48,-46.56 -46.52,-51.79 -29.47,-4.95 -61.38,5.79 -70.36,23.25 -17.39,33.73 1.58,57.63 25.22,67.73 36.22,15.46 56.4,4.24 53.38,44.93z"/>
   <path class="fil1" d="M5261.45 2275.77c23.21,91.62 161.78,51.93 127.62,-18.7 -16.93,-35.01 -75.07,-26.9 -79.68,-53.47 -3.25,-18.76 17.61,-24.44 31.49,-15.54 26.84,17.18 -8.27,20.56 50.24,20.18 -16.16,-81.64 -111.21,-57.77 -121.39,-16.32 -19.82,80.73 89.53,36.79 82.46,100.68 -56.64,26.4 -18.13,-24.48 -90.75,-16.83z"/>
   <path class="fil1" d="M4093.2 2295.17c-63.82,17.98 -20.67,-21.61 -90.07,-20.72 9.06,67.66 99.68,65.1 125.25,27.11 19.27,-28.62 -0.36,-56.99 -20.35,-66.89 -33.98,-16.86 -60.92,-2.62 -57.88,-46.08 7.05,-2.46 10.45,-4.5 17.92,-4.48 37.24,0.1 -3.52,24.84 62.87,23.91 -10.09,-72.31 -101.44,-63.12 -118.4,-21.3 -32.38,79.86 94.7,48.02 80.66,108.44z"/>
   <path class="fil1" d="M4808.73 2195.75l14.3 51.74 -33.62 0.12 19.32 -51.86zm-35.82 104.68c2.52,-6.26 4.45,-13.03 7.62,-22.35l52.46 -0.12 19.72 45.5 35.24 0.36c-6.67,-29.87 -45.29,-152.26 -64.33,-165.82l-34.92 0.17 -62.13 165.68 33.04 -0.16 13.3 -23.27z"/>
   <path class="fil1" d="M4608.3 2265.93c-15.48,17.43 -16.28,40.61 -50.2,31.9 -42.04,-10.81 -41.63,-101.38 0.51,-113.04 34.9,-9.65 36.79,13.72 49.69,30.31l32.25 -0.53c-6.9,-85.1 -156.21,-84.38 -152.66,31.53 3.14,102.55 141.44,111.17 152.28,20.16l-31.86 -0.34z"/>
   <path class="fil1" d="M6726.54 2211.15c6.87,-10.97 15.84,-45.83 40.62,-22.8 28.5,26.46 -29.6,72.17 -49.65,89.91 -19.63,17.4 -25.97,15.24 -28.23,45.56l124.47 -0.26 -0.53 -24.68c-16.3,-9.09 -36.63,-3.07 -60.8,-7.52 118.61,-96.78 42.66,-151.73 -20.74,-132.95 -25.63,7.6 -33.86,22.09 -38.73,53l33.57 -0.25z"/>
   <path class="fil1" d="M2633.07 2323.49c47.27,0.66 46.35,6.69 60.52,-36.54 4.23,-12.9 9.86,-27.18 15.43,-42.58 10.19,-28.22 21.39,-58.3 30.01,-85.09l-39.23 -1.15 -40.37 130.91c-21.24,-32.73 -27.9,-100.42 -47.19,-130.17l-36.34 -0.97 57.17 165.59z"/>
   <path class="fil1" d="M6842.42 2165.03l0.66 22.85 82.48 0.03 -69.58 133.06 41.95 3.36c16.03,-43.32 74.58,-123.42 75.46,-166.25 -22.16,-0.05 -44.34,0.08 -66.5,-0.07 -19.98,-0.14 -48.48,-4.64 -64.47,7.02z"/>
   <path class="fil1" d="M6550.63 2187.43l0.44 34.06 48.17 -22.59 0.38 123.21 37.55 0.41 -0.07 -161.89c-38.36,-7.07 -59.71,15.8 -86.47,26.8z"/>
   <polygon class="fil1" points="4669.62,2323.77 4708.03,2323.49 4707.94,2158.46 4669.81,2157.95 "/>
   <path class="fil1" d="M6076.43 2331.8c27.68,-0.63 23.8,-8.78 31.93,-34.4l47.63 -145.46c-31.13,0.06 -24.5,6.65 -34.11,37l-45.45 142.86z"/>
   <path class="fil1" d="M3053.28 2274.6c-18.4,-18.64 -25.61,3.22 -29.5,-28.09 4.25,-2.32 3.92,-3.63 13.4,-5.37 3.27,-0.6 13.23,-0.64 16.98,-0.72 12.93,-0.24 23.05,0.11 35.42,-0.75l-0.13 82.63 -27.37 -4.1c11.53,11.38 24.64,14.5 29.55,0.62l3.74 -13.75c8.9,-77.94 -11.69,-71.06 -40.91,-70.65 -19.29,0.27 -19.36,-1.86 -36.44,6.24l0.56 23.31c17.4,13.38 9.89,8.19 34.7,10.63z"/>
   <path class="fil1" d="M5452.68 2252.32c5.44,16.26 -4.47,15.22 28.51,15.42 35.12,0.22 23.5,0.71 28.88,-15.42 -14.44,-9.55 -43.38,-9.22 -57.39,0z"/>
  </g>
 </g>
</svg>
