<?xml version="1.0" encoding="UTF-8"?>
<!DOCTYPE svg PUBLIC "-//W3C//DTD SVG 1.1//EN" "http://www.w3.org/Graphics/SVG/1.1/DTD/svg11.dtd">
<!-- Creator: CorelDRAW -->
<svg xmlns="http://www.w3.org/2000/svg" xml:space="preserve" width="66.5153mm" height="19.7162mm" version="1.1" style="shape-rendering:geometricPrecision; text-rendering:geometricPrecision; image-rendering:optimizeQuality; fill-rule:evenodd; clip-rule:evenodd"
viewBox="0 0 5908.44 1751.36"
 xmlns:xlink="http://www.w3.org/1999/xlink"
 xmlns:xodm="http://www.corel.com/coreldraw/odm/2003">
 <defs>
  <style type="text/css">
   <![CDATA[
    .str0 {stroke:#D4AC82;stroke-width:15.04;stroke-miterlimit:22.9256}
    .fil1 {fill:#373536}
    .fil0 {fill:#282829}
    .fil2 {fill:#D4AC82}
    .fil3 {fill:#E9EDED}
   ]]>
  </style>
 </defs>
 <g id="Camada_x0020_1">
  <metadata id="CorelCorpID_0Corel-Layer"/>
  <path class="fil0" d="M2387.93 1036.85c10.18,17.15 73.74,219.67 78.92,248.03l-160.29 -0.35 81.37 -247.68zm434.96 -36.44c123.9,1.56 258.11,-28.42 257.74,84.86 -0.2,60.72 -30.81,79.62 -87.04,85.15 -49.93,4.91 -120.39,1.41 -172.54,1l1.84 -171.01zm-733.31 525.66l135.84 0.04c15.07,-32.75 34.14,-94.07 44.54,-130.68l236.22 0.05c10.35,37.17 26.9,98.64 41.7,130.47l271.83 -0.03c4.25,-72.49 1.15,-170.95 1.51,-247.78 135.1,-0.59 232.57,-22.38 240.11,76.29 4.88,63.81 -3.19,110.2 15.87,171.31l145.92 -1.21c-2.86,-33.01 -23.7,-11.37 -26.19,-78.15 -5.77,-155.72 10.63,-163.37 -78.41,-225.6 52.12,-32.05 88.51,-55.56 94.05,-135.57 5.48,-79.2 -34.19,-136.01 -76.24,-162.45 -59.46,-37.38 -128.48,-31.12 -208.2,-31.12 -47.64,0 -202.47,-5.67 -236.11,3.14l-0.19 619.85c-13.87,-10.52 -53.8,-137.59 -59.65,-153.76l-164.51 -469.26 -155.66 0.04c-10.65,45.98 -38.94,110.38 -55.15,157.78l-112.39 314.66c-10.5,28.63 -53.47,139.11 -54.89,161.97z"/>
  <path class="fil0" d="M2787.23 226.87c-7.49,-4.31 -4.99,7.99 -6.64,-11.17l191.79 1.53 2.04 522.52 131.76 -0.11 -0.49 -521.95 194.29 -2.26 -2.08 -108.6 -514.53 -0.65 -2.79 109.52c-27.05,-23.88 -42.6,-82.11 -150.11,-113.88 -228.22,-67.43 -421.87,104.26 -385.56,380.74 43.62,332.12 358.58,310.94 468.84,215.56 28.42,-24.59 97.6,-108.12 91.7,-175.04l-128.66 0.12c-15.6,46.89 -28.63,78.45 -59.98,98.2 -67.24,42.34 -167.26,27.22 -211.55,-60.47 -50.75,-100.48 -38.92,-299.68 74.18,-346.23 40.47,-16.66 98.78,-12.16 133.2,6.75 27.04,14.87 44.55,38.95 55.14,66.75 13.58,35.64 -3.21,25.95 140.54,25.93 -4.04,-37.58 -17.48,-61.79 -21.09,-87.26z"/>
  <path class="fil0" d="M4041.22 215.08c70.05,0.62 212.9,-16.6 244.43,31.08 17.26,26.12 21.77,77.18 -0.06,107.18 -33.72,46.31 -167.17,32.26 -244.47,32.19l0.11 -170.45zm-129.45 522.43c26.91,7.62 97.86,3.62 129.31,2.82l0.02 -247.18c312.74,-3.9 210.01,-1.68 253.99,247.22 17.94,0.45 132.21,5.89 148.62,-5.83 -7.21,-25.09 0.37,-2.9 -10.75,-15.54 -5.98,-6.81 -4.44,1.15 -10.93,-13.98 -7.87,-18.34 -6,-113.24 -8.64,-144.78 -2.69,-32.12 -4.17,-54.82 -20.04,-81.02 -15.12,-24.97 -32.4,-25.6 -56.27,-44.01 132.09,-56.91 120.62,-225.06 17.43,-298.43 -52.82,-37.55 -134.76,-30.61 -206.36,-30.61 -59.98,0 -182.77,-6.82 -235.25,1.71l-1.11 629.65z"/>
  <path class="fil0" d="M5564.15 990.77c204.81,-42.51 249.26,215.92 183,351.56 -67.71,138.62 -300.63,119.85 -316.18,-95.52 -9.25,-128.04 26.04,-233.81 133.19,-256.05zm-27.93 -110.32c-200.6,47.37 -261.49,210.01 -235.39,394.61 15.75,111.4 47.24,157.78 111.47,208.33 164.57,129.52 544.1,65.56 491.11,-338.99 -13.73,-104.84 -50.4,-166.93 -110.01,-209.87 -63.59,-45.83 -158.85,-77.32 -257.18,-54.09z"/>
  <path class="fil0" d="M3556.34 202.8c123.4,-19.99 189.72,84.04 194.35,195.99 5.22,126.29 -33.49,230.09 -146.26,244.94 -125.86,16.57 -193.39,-81.56 -197.62,-198.87 -4.61,-127.99 34.79,-223.48 149.53,-242.07zm-30.76 -109.51c-102.36,19.14 -153.98,58.51 -197.86,120.77 -46.16,65.48 -62.42,168.92 -51.12,263.84 12.88,108.14 42.28,162 105.32,214.55 57.99,48.34 156.92,77.51 256.54,61.13 44.09,-7.24 83.14,-22.74 114.44,-43.19 109.45,-71.51 148,-207.25 128.63,-345.62 -16.28,-116.34 -44.79,-155.94 -107.55,-211.78 -53.81,-47.88 -156.85,-76.83 -248.41,-59.7z"/>
  <path class="fil0" d="M4891.12 1243.49c4.89,-2.43 0.16,-2.05 10.08,-3.29 4.91,-0.61 9.19,-0.52 14.12,-0.59l96.99 0.36c33.14,0 94.32,-5.82 121.91,2.39 7.94,8.48 7.21,-17.8 6.26,15.77l-0.01 265.31 125.46 0.1 -0.83 -631.6 -128.5 0.22 0.1 238.93 -248 -0.15 0.04 -237.48 -128.79 -1.13 0.07 630.84 126.43 0.47c-0.41,-18.28 -6.84,-263.38 4.66,-280.16z"/>
  <path class="fil0" d="M3918.42 1284.84c5.24,-30.96 70.02,-233.69 81.52,-249.6l76.66 249.56 -158.18 0.04zm234.34 233.07l3.16 6.9 109.35 -0.82c35.94,-0.01 27.73,-2.84 31.4,-8.87l-219.48 -623.19 -152.71 -0.13 -227.1 632.89 139.41 1.46c5.33,-16.16 35.04,-127 52.11,-130.67l228.02 0.04 35.84 122.39z"/>
  <path class="fil0" d="M2114.59 1309.15l-132.03 -0.48c-39.95,177.8 -295.79,173.71 -298.16,-96.3 -1.65,-189.23 121.4,-262.06 231.7,-207.96 36.51,17.9 52.81,47.46 67.73,94.87l129.99 -0.04c4.4,-138.45 -158.22,-254.19 -332.83,-220.4 -148.84,28.81 -233.15,156.72 -231.62,333.54 3.97,460.23 545.7,392.51 565.21,96.77z"/>
  <path class="fil0" d="M1743.69 740.71l116.92 -0.19 217.78 -633.81 -139.44 -0.51 -136.3 480.54 -137.7 -479.38 -139.17 -1.33c0,28.77 161.71,487.29 197.6,598.01 5.7,17.57 5.76,28.49 20.31,36.66z"/>
  <path class="fil0" d="M3407.21 1525.71c158.36,4.59 118.6,22.21 177.39,-149.89 31.74,-92.91 146.63,-417.17 163.98,-484.1l-137.86 0.23 -101.77 357.39c-6.91,23.62 -23.42,99.21 -39.63,118.19l-133.42 -475.89 -141.85 1.02 213.16 633.04z"/>
  <polygon class="fil0" points="4747.07,1410.76 4434.72,1410.37 4434.83,891.59 4303.63,890.97 4303.68,1523.57 4747.45,1523.51 "/>
  <path class="fil0" d="M2079.26 740.05l133.58 0.71 -0.01 -634.5 -136.32 0.06c11.57,79.99 2.79,231.07 2.79,318.13 0,105.19 0.06,210.4 -0.04,315.6z"/>
  <path class="fil1" d="M892.95 1122.93c-116.83,-20.41 -212.8,-170.15 -188.72,-310.87 28.64,-167.37 201.15,-253.58 261.71,-228.8 4.52,13.81 4.44,21.14 -0.6,34.38 -45.6,19.82 -83.66,2.92 -158.97,70.19 -35.13,31.38 -70.12,80.43 -79.86,145.7 -10.66,71.38 8.29,143.46 40.91,187.99 21.81,29.77 28.49,37.57 56.11,59.2 27.2,21.29 43.71,26.62 69.42,42.21zm-422.72 -242.83c8.79,-7.99 21.58,-11.25 34.92,-19.64 57.77,-36.34 34.21,-102.24 45.21,-118.58 18.65,25.18 8.06,65.69 -4.93,90.54 -22.36,42.79 -37.74,33.04 -56.41,54.29 78.02,47.77 121.21,-5.78 141.89,-10.71 -3.89,50.42 -139.77,55.46 -160.67,4.09zm458.9 -0.83c-22.19,-15.94 -41.24,-30.91 -53.45,-59.82 -9.63,-22.82 -17.29,-76.49 7.62,-88.46 6.54,14.01 -12.5,53.53 6.83,91.14 20.87,40.58 31.83,27.8 56.89,53.7 -15.17,33.04 -84.65,50.37 -131.87,25.73 -31.88,-16.64 -28.11,-17.75 -29.39,-29.37 26.66,3.46 62.42,60.67 143.37,7.08zm-209.83 -241.11c-35.45,37.88 -75.79,9.67 -49.59,-44.08 16.26,-33.35 39.96,-59.98 70.29,-71.63 -12.99,15.44 -74.67,68.16 -57.44,114.34 15.56,11.32 17.46,10.22 36.74,1.37zm-168.83 11.35c38.76,58.73 95.83,40.37 114.2,46.95 -14.66,27.37 -75.65,2.4 -92.52,-8.87 -13.73,-9.16 -58.57,-48.88 -43.13,-76.31 13.08,7.02 14.22,27.28 21.45,38.23zm494.05 618.07c-192.03,63.2 -399.61,76.44 -588.17,-7.58 -182.77,-81.44 -268.07,-236.12 -266.23,-435.39 4.1,-444.43 446.68,-612.36 827.42,-484.18 4.08,21.92 -8.17,73.65 -10.93,100.6 -33.96,-8.31 -75.53,-31.61 -110.22,-43.53 -142.65,-49.07 -239.47,-59.83 -360.42,15.67 -118.45,73.95 -191.97,214.54 -187.97,415.72 6.13,308.05 203.59,458.7 475.48,435.29 108.37,-9.33 149.54,-30.41 221.91,-76.57l-0.87 79.98zm-983.93 -1124.64c-7.29,249.3 -0.38,557.95 -0.38,818.25 0,94.76 -3.54,159.78 35.48,237 62.64,123.96 160.34,211.94 259.5,286.88 51.62,39.03 104.61,74.91 163.56,109.59 22.93,13.48 157.93,92.3 177.59,93.8 34.94,2.66 296.8,-163.89 342.47,-200.32 99.25,-79.16 197.62,-160.36 260.68,-285.89 42.16,-83.91 37.43,-134.67 37.43,-236.8 0,-262.16 6.96,-572.2 -0.35,-823.38 -171.75,-2.49 -341.84,17.14 -505.95,-28.78 -24.27,-6.8 -126.19,-47.69 -131.37,-48.07 -5.17,-0.39 -113.2,38.2 -134.18,44.18 -204.5,58.39 -328.42,16.16 -504.48,33.54z"/>
  <path class="fil2 str0" d="M1044.52 1267.59l0.87 -79.98c-72.37,46.16 -113.54,67.24 -221.91,76.57 -271.89,23.41 -469.35,-127.25 -475.48,-435.29 -4,-201.18 69.52,-341.77 187.97,-415.72 120.95,-75.5 217.77,-64.74 360.42,-15.67 34.69,11.93 76.26,35.22 110.22,43.53 2.76,-26.95 15.01,-78.68 10.93,-100.6 -380.74,-128.18 -823.31,39.76 -827.42,484.18 -1.84,199.27 83.45,353.95 266.23,435.39 188.56,84.01 396.14,70.78 588.17,7.58z"/>
  <path class="fil1" d="M45.82 127.98c201.73,-18.58 362.89,32.31 594.18,-58.89 87.28,-34.42 43.7,-23.02 131.82,8.96 178.19,64.68 368.64,49.35 555.85,48.14 19.49,-0.12 22.54,-2.15 24.75,15.13l-0.17 743.06c0,179.46 15.61,290.65 -114.73,439.55 -31.82,36.36 -103.38,110.3 -140.28,137.24 -60.5,44.17 -80.95,66.43 -161.12,116.24 -30.38,18.88 -213.15,131.95 -243.86,126.55 -33.47,-5.88 -210.02,-113.53 -240.12,-132.33 -87.72,-54.78 -134.4,-95.8 -207.72,-159.34 -55.8,-48.37 -120.98,-124.83 -162.68,-208.52 -50.13,-100.57 -36.65,-214.08 -36.65,-336.47 0,-123.78 0,-247.56 0,-371.35 0,-117.43 -6.22,-252.73 0.72,-367.96zm-20.88 -21.14c-7.46,264.18 -0.28,587.62 -0.28,862.9 0,104.21 -1.79,161.2 39.8,246.97 61.54,126.94 167.65,218.14 275.02,301.18 52.66,40.73 317.37,210.55 360.11,209.73 18.88,-0.36 166.14,-84.23 190.77,-97.71 96.08,-52.61 256.13,-173.67 324.46,-247.44 42.82,-46.22 92.07,-110.48 118.54,-167.51 42.38,-91.32 39.62,-140.14 39.62,-249.49l0.02 -857.2c-50.61,-6.57 -136.52,-1.5 -190.91,-1.5 -158.57,0 -266.65,8.39 -416.64,-52.04 -15.95,-6.42 -54.06,-28.35 -65.58,-28.47 -4.42,-0.04 -119.96,42.92 -143.16,49.26 -51.03,13.95 -103.42,24.94 -159.51,29.65 -111.47,9.35 -256.69,1.42 -372.26,1.68z"/>
  <path class="fil3 str0" d="M24.93 106.84c196.11,-0.44 344.88,19.76 531.77,-31.33 23.19,-6.34 138.73,-49.31 143.16,-49.26 11.52,0.12 49.63,22.05 65.58,28.47 149.99,60.43 258.07,52.04 416.64,52.04 54.39,0 140.3,-5.07 190.91,1.5l-0.02 857.2c0,109.36 2.76,158.18 -39.62,249.49 -26.47,57.04 -75.72,121.29 -118.54,167.51 -68.34,73.77 -228.39,194.83 -324.46,247.44 -24.62,13.48 -171.88,97.35 -190.77,97.71 -42.74,0.82 -307.45,-169 -360.11,-209.73 -107.37,-83.05 -213.48,-174.25 -275.02,-301.18 -41.59,-85.77 -39.8,-142.76 -39.8,-246.97 0,-275.28 -7.19,-598.71 0.28,-862.9zm-16 68.97l0 866.49c0,194.52 130.69,325.64 260.36,439.09 25.12,21.98 37.71,31.93 63.83,51.34 69.01,51.26 325.76,216.28 369.39,211.14 18.63,-2.19 134.37,-66 155.64,-77.83 135.19,-75.17 302.47,-192.88 395.04,-305.18 73.54,-89.19 134.83,-174.41 134.7,-335.64l-0.02 -917.66c-5.63,-30.06 7.56,21.39 -2.17,-7.42l-3.39 -6.74 -324.02 -2.26c-104.95,0.12 -191.69,-13.36 -278.17,-46.9 -147.69,-57.27 -3.83,-44.88 -235.96,18.43 -140.15,38.23 -303.64,28.62 -459.06,28.58 -94.42,-0.03 -76.16,-12 -76.16,84.55z"/>
  <path class="fil2" d="M60.59 142.95c176.06,-17.38 299.98,24.85 504.48,-33.54 20.97,-5.99 129.01,-44.57 134.18,-44.18 5.18,0.38 107.1,41.28 131.37,48.07 164.11,45.92 334.2,26.29 505.95,28.78 7.3,251.19 0.35,561.23 0.35,823.38 0,102.13 4.73,152.89 -37.43,236.8 -63.06,125.53 -161.43,206.73 -260.68,285.89 -45.67,36.43 -307.53,202.97 -342.47,200.32 -19.66,-1.5 -154.66,-80.32 -177.59,-93.8 -58.95,-34.68 -111.94,-70.56 -163.56,-109.59 -99.16,-74.94 -196.86,-162.92 -259.5,-286.88 -39.01,-77.22 -35.48,-142.24 -35.48,-237 0,-260.3 -6.91,-568.95 0.38,-818.25zm-14.77 -14.97c-6.94,115.23 -0.72,250.53 -0.72,367.96 0,123.78 0,247.56 0,371.35 0,122.4 -13.48,235.9 36.65,336.47 41.7,83.69 106.88,160.16 162.68,208.52 73.32,63.54 120,104.56 207.72,159.34 30.1,18.8 206.65,126.45 240.12,132.33 30.71,5.4 213.48,-107.68 243.86,-126.55 80.17,-49.81 100.62,-72.07 161.12,-116.24 36.9,-26.94 108.46,-100.88 140.28,-137.24 130.34,-148.89 114.73,-260.09 114.73,-439.55l0.17 -743.06c-2.21,-17.28 -5.26,-15.25 -24.75,-15.13 -187.21,1.22 -377.66,16.55 -555.85,-48.14 -88.12,-31.99 -44.54,-43.38 -131.82,-8.96 -231.29,91.2 -392.45,40.31 -594.18,58.89z"/>
  <g id="_2379770040288">
   <path class="fil2 str0" d="M892.95 1122.93c-25.71,-15.59 -42.22,-20.92 -69.42,-42.21 -27.63,-21.63 -34.31,-29.44 -56.11,-59.2 -32.62,-44.53 -51.56,-116.6 -40.91,-187.99 9.74,-65.28 44.73,-114.32 79.86,-145.7 75.31,-67.27 113.37,-50.37 158.97,-70.19 5.04,-13.24 5.12,-20.56 0.6,-34.38 -60.55,-24.77 -233.07,61.43 -261.71,228.8 -24.07,140.72 71.9,290.46 188.72,310.87z"/>
   <path class="fil2 str0" d="M929.13 879.28c-80.95,53.59 -116.71,-3.62 -143.37,-7.08 1.29,11.62 -2.49,12.73 29.39,29.37 47.21,24.64 116.69,7.3 131.87,-25.73 -25.06,-25.89 -36.01,-13.12 -56.89,-53.7 -19.33,-37.61 -0.29,-77.13 -6.83,-91.14 -24.91,11.97 -17.25,65.64 -7.62,88.46 12.21,28.9 31.26,43.87 53.45,59.82z"/>
   <path class="fil2 str0" d="M470.23 880.1c20.9,51.36 156.78,46.32 160.67,-4.09 -20.68,4.93 -63.87,58.48 -141.89,10.71 18.67,-21.26 34.06,-11.5 56.41,-54.29 12.99,-24.85 23.58,-65.36 4.93,-90.54 -11.01,16.34 12.56,82.24 -45.21,118.58 -13.34,8.39 -26.12,11.65 -34.92,19.64z"/>
   <path class="fil2 str0" d="M719.3 638.17c-19.28,8.85 -21.18,9.95 -36.74,-1.37 -17.23,-46.18 44.45,-98.9 57.44,-114.34 -30.33,11.65 -54.03,38.28 -70.29,71.63 -26.2,53.75 14.14,81.95 49.59,44.08z"/>
   <path class="fil2 str0" d="M664.67 696.47c-18.37,-6.57 -75.43,11.79 -114.2,-46.95 -7.23,-10.95 -8.38,-31.21 -21.45,-38.23 -15.45,27.43 29.39,67.15 43.13,76.31 16.88,11.26 77.87,36.23 92.52,8.87z"/>
  </g>
 </g>
</svg>
