<?xml version="1.0" encoding="UTF-8"?>
<!DOCTYPE svg PUBLIC "-//W3C//DTD SVG 1.1//EN" "http://www.w3.org/Graphics/SVG/1.1/DTD/svg11.dtd">
<!-- Creator: CorelDRAW -->
<svg xmlns="http://www.w3.org/2000/svg" xml:space="preserve" width="72.6387mm" height="24.2726mm" version="1.1" style="shape-rendering:geometricPrecision; text-rendering:geometricPrecision; image-rendering:optimizeQuality; fill-rule:evenodd; clip-rule:evenodd"
viewBox="0 0 7066.7 2361.38"
 xmlns:xlink="http://www.w3.org/1999/xlink"
 xmlns:xodm="http://www.corel.com/coreldraw/odm/2003">
 <defs>
  <style type="text/css">
   <![CDATA[
    .fil2 {fill:none}
    .fil0 {fill:#32424F}
    .fil3 {fill:#AAB2B7}
    .fil1 {fill:#D6AB80}
   ]]>
  </style>
 </defs>
 <g id="Camada_x0020_1">
  <metadata id="CorelCorpID_0Corel-Layer"/>
  <path class="fil0" d="M1204.07 1516.81c-158.87,-27.77 -289.38,-231.38 -256.64,-422.74 38.94,-227.61 273.54,-344.84 355.88,-311.15 6.15,18.79 6.04,28.75 -0.81,46.75 -62,26.95 -113.77,3.98 -216.17,95.46 -47.78,42.67 -95.36,109.37 -108.6,198.13 -14.49,97.07 11.27,195.08 55.63,255.64 29.66,40.48 38.74,51.1 76.3,80.51 36.99,28.95 59.44,36.2 94.41,57.4zm-574.85 -330.22c11.97,-10.86 29.34,-15.29 47.49,-26.7 78.57,-49.41 46.51,-139.04 61.48,-161.25 25.35,34.24 10.96,89.33 -6.7,123.13 -30.41,58.18 -51.33,44.92 -76.72,73.82 106.09,64.96 164.83,-7.86 192.96,-14.56 -5.29,68.57 -190.08,75.42 -218.5,5.56zm624.04 -1.12c-30.18,-21.68 -56.09,-42.04 -72.68,-81.35 -13.1,-31.03 -23.51,-104.01 10.36,-120.29 8.89,19.05 -17,72.8 9.29,123.94 28.38,55.17 43.28,37.8 77.36,73.01 -20.63,44.93 -115.12,68.51 -179.32,34.99 -43.36,-22.63 -38.22,-24.14 -39.98,-39.95 36.26,4.71 84.89,82.51 194.97,9.64zm-285.35 -327.87c-48.21,51.51 -103.05,13.16 -67.43,-59.95 22.09,-45.34 54.34,-81.55 95.58,-97.39 -17.67,20.98 -101.55,92.67 -78.11,155.48 21.16,15.39 23.75,13.88 49.96,1.86zm-229.57 15.43c52.71,79.87 130.31,54.91 155.3,63.85 -19.93,37.21 -102.87,3.25 -125.83,-12.06 -18.67,-12.44 -79.65,-66.48 -58.64,-103.76 17.79,9.53 19.35,37.09 29.18,51.98zm671.84 840.49c-261.12,85.95 -543.41,103.95 -799.82,-10.3 -248.54,-110.75 -364.53,-321.1 -362.03,-592.08 5.59,-604.35 607.42,-832.73 1125.18,-658.41 5.55,29.8 -11.12,100.14 -14.87,136.79 -46.18,-11.3 -102.72,-42.98 -149.88,-59.2 -193.99,-66.73 -325.65,-81.36 -490.12,21.32 -161.09,100.55 -261.06,291.73 -255.62,565.3 8.34,418.91 276.87,623.78 646.59,591.94 147.37,-12.69 203.35,-41.36 301.76,-104.12l-1.19 108.76zm-1338 -1529.34c-9.92,339 -0.53,758.73 -0.53,1112.7 0,128.85 -4.81,217.28 48.25,322.29 85.17,168.57 218.04,288.2 352.87,390.12 70.2,53.07 142.26,101.86 222.42,149.02 31.18,18.34 214.77,125.52 241.49,127.55 47.5,3.62 403.61,-222.86 465.71,-272.4 134.97,-107.66 268.74,-218.07 354.49,-388.77 57.32,-114.11 50.9,-183.13 50.9,-322.01 0,-356.5 9.46,-778.11 -0.48,-1119.7 -233.54,-3.38 -464.84,23.32 -688.01,-39.13 -33.01,-9.24 -171.6,-64.86 -178.64,-65.38 -7.03,-0.54 -153.94,51.93 -182.47,60.08 -278.09,79.39 -446.61,21.98 -686.02,45.62z"/>
  <path class="fil0" d="M3046.82 1340.24c11.62,19.58 84.19,250.83 90.12,283.21l-183.02 -0.4 92.91 -282.81zm496.65 -41.6c141.46,1.78 294.71,-32.45 294.3,96.89 -0.22,69.34 -35.18,90.91 -99.39,97.24 -57.01,5.61 -137.46,1.61 -197.01,1.15l2.1 -195.27zm-837.34 600.21l155.11 0.05c17.2,-37.4 38.97,-107.41 50.85,-149.22l269.73 0.05c11.81,42.44 30.7,112.64 47.61,148.98l310.39 -0.03c4.85,-82.78 1.31,-195.2 1.72,-282.93 154.27,-0.66 265.55,-25.56 274.17,87.12 5.56,72.87 -3.65,125.83 18.12,195.61l166.61 -1.38c-3.26,-37.69 -27.06,-12.99 -29.9,-89.23 -6.61,-177.82 12.13,-186.55 -89.53,-257.59 59.52,-36.6 101.06,-63.45 107.38,-154.81 6.27,-90.44 -39.03,-155.31 -87.04,-185.48 -67.91,-42.69 -146.72,-35.54 -237.74,-35.54 -54.39,0 -231.18,-6.46 -269.61,3.58l-0.21 707.78c-15.83,-12.01 -61.44,-157.11 -68.1,-175.57l-187.86 -535.82 -177.73 0.05c-12.17,52.5 -44.47,126.03 -62.98,180.15l-128.33 359.29c-12,32.69 -61.05,158.84 -62.68,184.94z"/>
  <path class="fil0" d="M3502.76 415.36c-8.56,-4.92 -5.71,9.14 -7.59,-12.75l218.99 1.74 2.33 596.64 150.45 -0.12 -0.56 -595.99 221.86 -2.58 -2.37 -124.01 -587.52 -0.74 -3.18 125.05c-30.89,-27.27 -48.64,-93.75 -171.4,-130.03 -260.6,-76.99 -481.73,119.04 -440.26,434.74 49.81,379.24 409.45,355.04 535.33,246.14 32.44,-28.08 111.44,-123.47 104.71,-199.86l-146.91 0.14c-17.81,53.55 -32.69,89.59 -68.48,112.13 -76.78,48.33 -190.99,31.08 -241.56,-69.05 -57.95,-114.74 -44.44,-342.19 84.7,-395.34 46.22,-19.02 112.79,-13.88 152.09,7.71 30.88,16.98 50.88,44.47 62.97,76.2 15.51,40.69 -3.66,29.63 160.47,29.61 -4.62,-42.91 -19.96,-70.55 -24.08,-99.64z"/>
  <path class="fil1" d="M1410.17 1713.52l1.19 -108.76c-98.41,62.76 -154.39,91.43 -301.76,104.12 -369.72,31.83 -638.25,-173.03 -646.59,-591.94 -5.44,-273.57 94.53,-464.74 255.62,-565.3 164.47,-102.68 296.14,-88.04 490.12,-21.32 47.15,16.22 103.7,47.89 149.88,59.2 3.75,-36.66 20.41,-106.99 14.87,-136.79 -517.75,-174.32 -1119.58,54.06 -1125.18,658.41 -2.5,270.98 113.49,481.33 362.03,592.08 256.42,114.25 538.7,96.25 799.82,10.3z"/>
  <path class="fil0" d="M4934.64 401.91c79.98,0.71 243.1,-18.96 279.09,35.49 19.71,29.82 24.87,88.13 -0.08,122.39 -38.51,52.87 -190.87,36.83 -279.15,36.75l0.14 -194.63zm-147.82 596.54c30.72,8.71 111.74,4.13 147.64,3.22l0.03 -282.25c357.1,-4.46 239.8,-1.92 290.01,282.28 20.49,0.53 150.97,6.72 169.7,-6.65 -8.23,-28.64 0.43,-3.31 -12.27,-17.75 -6.83,-7.77 -5.07,1.31 -12.49,-15.96 -8.98,-20.94 -6.85,-129.29 -9.86,-165.31 -3.07,-36.68 -4.76,-62.6 -22.88,-92.52 -17.26,-28.51 -37,-29.22 -64.25,-50.25 150.81,-65 137.72,-257 19.89,-340.76 -60.31,-42.87 -153.88,-34.95 -235.63,-34.95 -68.49,0 -208.71,-7.78 -268.63,1.95l-1.26 718.96z"/>
  <path class="fil0" d="M6673.58 1287.62c233.86,-48.54 284.61,246.56 208.95,401.44 -77.32,158.28 -343.27,136.84 -361.04,-109.07 -10.56,-146.2 29.74,-266.98 152.09,-292.37zm-31.9 -125.97c-229.05,54.09 -298.58,239.8 -268.78,450.59 17.99,127.2 53.94,180.16 127.28,237.88 187.93,147.89 621.28,74.86 560.77,-387.07 -15.67,-119.7 -57.54,-190.6 -125.61,-239.63 -72.62,-52.32 -181.39,-88.29 -293.67,-61.77z"/>
  <path class="fil0" d="M4380.97 387.89c140.9,-22.82 216.63,95.96 221.91,223.8 5.96,144.2 -38.23,262.73 -167,279.69 -143.72,18.92 -220.83,-93.13 -225.66,-227.07 -5.26,-146.16 39.74,-255.19 170.76,-276.41zm-35.13 -125.04c-116.87,21.86 -175.82,66.82 -225.92,137.9 -52.71,74.77 -71.28,192.89 -58.37,301.26 14.71,123.47 48.27,184.98 120.26,244.98 66.21,55.19 179.18,88.5 292.93,69.8 50.36,-8.28 94.94,-25.97 130.67,-49.32 124.97,-81.64 168.99,-236.64 146.88,-394.64 -18.59,-132.84 -51.14,-178.06 -122.81,-241.81 -61.45,-54.67 -179.1,-87.73 -283.65,-68.18z"/>
  <path class="fil0" d="M5905.08 1576.19c5.58,-2.77 0.18,-2.34 11.52,-3.76 5.6,-0.7 10.5,-0.59 16.12,-0.66l110.75 0.4c37.84,0 107.7,-6.64 139.21,2.72 9.06,9.7 8.23,-20.32 7.15,18.01l-0.02 302.94 143.26 0.12 -0.94 -721.18 -146.73 0.24 0.12 272.83 -283.18 -0.17 0.04 -271.17 -147.06 -1.29 0.08 720.32 144.36 0.54c-0.47,-20.88 -7.81,-300.74 5.32,-319.89z"/>
  <path class="fil0" d="M4794.4 1623.41c5.99,-35.34 79.96,-266.84 93.08,-285l87.54 284.96 -180.62 0.04zm267.57 266.12l3.62 7.88 124.86 -0.93c41.04,0 31.67,-3.24 35.85,-10.13l-250.6 -711.6 -174.38 -0.15 -259.31 722.67 159.18 1.66c6.09,-18.45 40.01,-145 59.49,-149.21l260.38 0.06 40.92 139.74z"/>
  <path class="fil0" d="M2734.71 1651.17l-150.75 -0.55c-45.62,203.03 -337.75,198.36 -340.45,-109.95 -1.89,-216.07 138.62,-299.24 264.57,-237.46 41.69,20.43 60.3,54.19 77.33,108.33l148.44 -0.05c5.01,-158.08 -180.67,-290.24 -380.05,-251.66 -169.95,32.89 -266.22,178.95 -264.47,380.85 4.53,525.51 623.1,448.19 645.38,110.5z"/>
  <path class="fil0" d="M2311.2 1002.1l133.51 -0.21 248.67 -723.71 -159.22 -0.57 -155.64 548.7 -157.23 -547.38 -158.91 -1.53c-0.01,32.85 184.65,556.41 225.62,682.84 6.51,20.06 6.58,32.53 23.18,41.86z"/>
  <path class="fil0" d="M4210.69 1898.44c180.82,5.24 135.43,25.35 202.55,-171.15 36.24,-106.09 167.43,-476.35 187.24,-552.77l-157.42 0.27 -116.21 408.08c-7.89,26.97 -26.73,113.28 -45.25,134.95l-152.34 -543.39 -161.97 1.16 243.4 722.84z"/>
  <path class="fil0" d="M52.09 163.82c274.33,-25.27 493.47,43.92 808.01,-80.1 118.69,-46.79 59.43,-31.3 179.25,12.2 242.31,87.97 501.29,67.11 755.89,65.46 26.5,-0.18 30.64,-2.93 33.64,20.57l-0.21 1010.45c0,244.04 21.21,395.26 -156.03,597.73 -43.27,49.44 -140.58,149.99 -190.76,186.62 -82.26,60.06 -110.07,90.33 -219.1,158.07 -41.31,25.67 -289.86,179.43 -331.62,172.1 -45.52,-8 -285.59,-154.39 -326.52,-179.95 -119.29,-74.49 -182.77,-130.28 -282.47,-216.68 -75.89,-65.77 -164.51,-169.75 -221.23,-283.56 -68.16,-136.76 -49.84,-291.11 -49.84,-457.55 0,-168.32 0,-336.66 0,-504.99 0,-159.67 -8.44,-343.68 0.98,-500.37zm-28.4 -28.75c-10.15,359.25 -0.37,799.07 -0.37,1173.42 0,141.71 -2.44,219.2 54.11,335.84 83.69,172.61 227.98,296.62 373.99,409.56 71.6,55.38 431.58,286.31 489.71,285.2 25.67,-0.5 225.94,-114.53 259.41,-132.86 130.64,-71.55 348.3,-236.17 441.23,-336.48 58.24,-62.86 125.19,-150.24 161.19,-227.8 57.62,-124.17 53.88,-190.56 53.88,-339.26l0.03 -1165.68c-68.83,-8.94 -185.65,-2.04 -259.62,-2.04 -215.63,0 -362.6,11.4 -566.57,-70.78 -21.68,-8.74 -73.51,-38.55 -89.17,-38.71 -6.02,-0.06 -163.14,58.36 -194.69,66.98 -69.39,18.97 -140.64,33.93 -216.91,40.32 -151.58,12.72 -349.05,1.94 -506.22,2.29z"/>
  <polygon class="fil0" points="5740.59,1767.19 5383.95,1766.75 5384.07,1174.37 5234.26,1173.67 5234.33,1896.01 5741.03,1895.93 "/>
  <path class="fil1" d="M23.69 135.07c266.68,-0.59 468.99,26.87 723.12,-42.61 31.55,-8.62 188.67,-67.04 194.69,-66.98 15.66,0.16 67.49,29.97 89.17,38.71 203.97,82.18 350.94,70.78 566.57,70.78 73.97,0 190.79,-6.9 259.62,2.04l-0.03 1165.68c0,148.7 3.75,215.1 -53.88,339.26 -36.01,77.57 -102.96,164.95 -161.19,227.8 -92.93,100.31 -310.58,264.93 -441.23,336.48 -33.48,18.33 -233.74,132.37 -259.41,132.86 -58.13,1.11 -418.1,-229.82 -489.71,-285.2 -146.01,-112.94 -290.3,-236.95 -373.99,-409.56 -56.55,-116.64 -54.11,-194.13 -54.11,-335.84 0,-374.35 -9.78,-814.17 0.37,-1173.42zm-21.75 93.78l0 1178.3c0,264.52 177.72,442.83 354.04,597.11 34.16,29.88 51.28,43.42 86.8,69.8 93.84,69.71 443,294.12 502.32,287.14 25.32,-2.98 182.72,-89.76 211.65,-105.85 183.84,-102.21 411.31,-262.29 537.2,-414.99 100,-121.29 183.34,-237.17 183.16,-456.43l-0.01 -1247.88c-7.66,-40.88 10.27,29.09 -2.96,-10.09l-4.61 -9.16 -440.62 -3.06c-142.72,0.17 -260.68,-18.18 -378.28,-63.78 -200.85,-77.89 -5.21,-61.05 -320.88,25.05 -190.59,52 -412.91,38.93 -624.26,38.87 -128.41,-0.03 -103.57,-16.31 -103.57,114.97z"/>
  <path class="fil1" d="M72.18 184.18c239.41,-23.64 407.93,33.78 686.02,-45.62 28.52,-8.15 175.44,-60.62 182.47,-60.08 7.03,0.52 145.63,56.13 178.64,65.38 223.17,62.45 454.47,35.75 688.01,39.13 9.93,341.59 0.48,763.2 0.48,1119.7 0,138.88 6.42,207.9 -50.9,322.01 -85.75,170.71 -219.52,281.12 -354.49,388.77 -62.1,49.54 -418.2,276.02 -465.71,272.4 -26.72,-2.03 -210.31,-109.21 -241.49,-127.55 -80.16,-47.16 -152.22,-95.95 -222.42,-149.02 -134.84,-101.92 -267.7,-221.55 -352.87,-390.12 -53.06,-105.01 -48.25,-193.43 -48.25,-322.29 0,-353.97 -9.4,-773.7 0.53,-1112.7zm-20.09 -20.36c-9.43,156.69 -0.98,340.69 -0.98,500.37 0,168.33 0,336.67 0,504.99 0,166.45 -18.32,320.79 49.84,457.55 56.72,113.8 145.33,217.79 221.23,283.56 99.7,86.41 163.18,142.19 282.47,216.68 40.93,25.56 281,171.95 326.52,179.95 41.75,7.34 290.31,-146.42 331.62,-172.1 109.03,-67.74 136.83,-98.01 219.1,-158.07 50.18,-36.64 147.49,-137.18 190.76,-186.62 177.23,-202.47 156.03,-353.69 156.03,-597.73l0.21 -1010.45c-3.01,-23.49 -7.14,-20.74 -33.64,-20.57 -254.6,1.64 -513.58,22.5 -755.89,-65.46 -119.82,-43.5 -60.56,-58.99 -179.25,-12.2 -314.53,124.02 -533.68,54.82 -808.01,80.1z"/>
  <path class="fil0" d="M2694.36 1001.35l152.52 0.81 -0.01 -724.5 -155.66 0.07c13.21,91.33 3.18,263.85 3.18,363.25 0,120.12 0.07,240.25 -0.04,360.38z"/>
  <path class="fil1" d="M1204.07 1516.81c-34.96,-21.2 -57.42,-28.45 -94.41,-57.4 -37.56,-29.41 -46.64,-40.03 -76.3,-80.51 -44.36,-60.56 -70.11,-158.57 -55.63,-255.64 13.24,-88.76 60.82,-155.46 108.6,-198.13 102.4,-91.48 154.17,-68.51 216.17,-95.46 6.85,-18 6.96,-27.96 0.81,-46.75 -82.34,-33.69 -316.94,83.54 -355.88,311.15 -32.74,191.35 97.77,394.97 256.64,422.74z"/>
  <path class="fil0" d="M5976.29 2310.54l0.07 -36.08c78.63,-15.72 77.3,52.57 -0.07,36.08zm0.78 -102.83c19.34,0.07 35.03,1.24 47.42,7.7 2.41,35.62 -12.19,29.21 -47.97,29.51l0.55 -37.2zm-37.73 134.98c31.58,1.22 91.75,4.58 113.49,-9.32 27.91,-17.83 25.2,-57.9 -6.18,-74.94l6.63 -8.92c0.82,-1.21 4.88,-6.78 5.82,-8.41 40.45,-70.89 -80.82,-63.68 -119.62,-62.69l-0.14 164.28z"/>
  <path class="fil0" d="M4953 2208.52c80.82,-3.88 88.6,51.18 54.7,101.58l-55.3 2.57 0.59 -104.14zm-38.56 131.1c162.73,45.44 186.68,-121.89 106.62,-153.69 -26.66,-10.57 -76.46,-12.37 -106.76,-4.42l0.15 158.11z"/>
  <path class="fil0" d="M2460.7 2207.77c46,0.1 71.64,3.35 71.19,52.58 -0.46,50.45 -24.34,52.91 -71.69,53.06l0.5 -105.64zm-37.79 133.51c78.58,10.75 148.13,1.09 148.73,-80.97 0.6,-82.93 -70.31,-90.18 -148.81,-80.55l0.08 161.52z"/>
  <path class="fil0" d="M3338.88 2207.77c47.05,-0.07 72.16,0.72 71.15,52.58 -0.92,47.01 -28.2,52.76 -71.41,53.13l0.25 -105.71zm-37.91 135.54c80.38,-0.02 147.87,6.89 148.39,-82.93 0.51,-88.97 -68,-82.14 -148.18,-82.44l-0.21 165.37z"/>
  <path class="fil0" d="M6377.86 2206.77l50.38 5.33c3.69,20.79 6.04,19.21 -3.9,36.56l-47.35 2.03 0.87 -43.92zm-38.85 65.26l0.03 71.28 37.7 -0.08 0.57 -62.11c53.94,-8.03 47.87,18.72 55.26,61.37l39.59 0.38c-8.61,-35.58 -5.88,-58.13 -30.37,-74.54l6.95 -7.11c15.27,-15.38 40.42,-42.1 6.87,-70.23 -24.94,-20.91 -82.43,-13.01 -116.46,-12.92l-0.13 93.96z"/>
  <path class="fil0" d="M6217.8 2250.56l0.03 -42.57c19.92,-0.26 37.47,0.9 50.84,7l2.42 28.51c-17.53,7.29 -30.77,7.17 -53.29,7.05zm-37.82 92.75l31.83 -0.03 6.21 -30.36c0.63,-11.58 -0.16,-21.08 0.93,-33.69l40.52 2.37 14.79 61.56 39.24 0.21c-11.52,-37.1 -5.46,-60.99 -31.3,-77.4 19.94,-17.39 50.62,-49.71 12.74,-76.98 -21.85,-15.72 -83.12,-10.95 -114.74,-11.05l-0.22 165.37z"/>
  <path class="fil0" d="M5648.89 2206.6c63.53,-25.04 77.28,90.03 31.52,109.21 -64.88,27.19 -85.06,-88.11 -31.52,-109.21zm93.21 82.84c36.4,-119.45 -130.28,-155.87 -158.06,-59.08 -35.95,125.22 127.58,159.06 158.06,59.08z"/>
  <path class="fil0" d="M5154.1 2205.79c68.35,-21.11 71.73,89.43 31.89,108.93 -68.04,33.29 -84.71,-92.62 -31.89,-108.93zm-66.37 83.66c21.5,92.75 193.23,71.87 159.46,-56.61 -23.71,-90.25 -190.77,-78.47 -159.46,56.61z"/>
  <path class="fil0" d="M4349.53 2277.84c-14.15,-85.18 73.1,-100.22 85.59,-33.77 15.88,84.56 -74.21,102.25 -85.59,33.77zm19.8 -99.15c-101.08,29.54 -70.88,197 50.51,164.76 93.13,-24.74 64.95,-198.51 -50.51,-164.76z"/>
  <path class="fil0" d="M3594.27 2283.64c-17.27,71.11 -103.5,28.74 -82.1,-46.98 17.3,-61.2 103.17,-39.8 82.1,46.98zm-57.57 -106.63c-102.15,16.16 -85.12,192.36 37.27,167.8 93.53,-18.79 82.48,-186.73 -37.27,-167.8z"/>
  <path class="fil0" d="M3073.32 2337.73l27.3 4.09 0.13 -82.42c-12.34,0.86 -22.42,0.51 -35.32,0.75 -3.75,0.08 -13.68,0.12 -16.94,0.72 -9.46,1.74 -9.13,3.05 -13.37,5.36 3.88,31.23 11.07,9.43 29.43,28.02 -13.15,27.91 -27.26,27.96 -60.03,19.51 -21.11,-15.09 -30.34,-125.56 35.95,-109.55 24.86,5.98 15.42,14.42 31.11,30.71l31.22 -0.61c-4.32,-83.06 -129.73,-74.61 -149.66,-5.55 -32.48,112.48 88.68,150.38 112.52,93.12l7.67 15.86z"/>
  <path class="fil0" d="M2885.64 2289.44c-23.94,62.01 -110.64,24.5 -78.24,-61.08 8.62,-22.76 39.75,-36.17 64.2,-17.73 15.79,11.92 24.15,52.62 14.04,78.8zm-61.01 -111.31c-46.64,10.48 -72.43,48.73 -58.76,109.58 9.04,40.24 52.62,69.19 104.79,56.17 93.45,-23.32 71.89,-192.23 -46.03,-165.76z"/>
  <path class="fil0" d="M3918.23 2218.23c12.74,17.37 13.62,26.7 18.69,50.02l-33.38 -2.68 14.69 -47.35zm-78.63 123.02l40.06 2.27 13.29 -44.9 53.51 -1.83c17.89,50.46 9.64,46.4 55.38,46.59l-57.48 -164.49 -42.74 -0.9c-19.82,24.95 -51.12,127.44 -62.03,163.26z"/>
  <path class="fil0" d="M5839.18 2215.53l14.22 52.3 -33.03 -0.36 18.81 -51.94zm-51.1 127.76c14.52,-10.07 17.4,-29.6 24.06,-46.23l51.62 -0.29 14.88 47.09 40.38 -3.53c-15.77,-41.61 -37.49,-130.26 -61.3,-162.28l-42.75 0.69 -57.61 164.53 30.71 0.03z"/>
  <path class="fil0" d="M2304.58 2267.83c4.74,-20.24 6.68,-33.21 19.02,-49.59l14.16 47.87 -33.17 1.71zm-65.31 75.22l37.11 -0.38 19.12 -45.46 52.65 0.66 14.27 44.97 40.24 -0.38 -57.34 -163.94 -47.71 -0.66 -58.34 165.19z"/>
  <path class="fil0" d="M3197.98 2219.6c12.1,15.41 12.05,24.86 18.85,48.43l-34.11 -1.98 15.25 -46.44zm-24.89 77.96l53.07 -0.2 19.55 45.76 36.14 -0.53 -56.92 -164.75 -48.17 0.95 -58.26 164.36 39.58 -0.9 15.01 -44.69z"/>
  <path class="fil0" d="M3701.6 2205.79c22.3,-9.79 26.32,-0.9 37.02,8.46 12.25,10.71 -2.27,13.53 43.67,14.05 -24.19,-124.92 -196.07,-4.13 -91,39.34 34.6,14.31 56.41,5.08 52.68,44.02 -47.29,21.91 -30.07,-8.13 -63.65,-16.7 -9.91,-2.54 -17.58,-0.59 -27.27,0.27 5.58,33.28 16.99,45.43 53.16,50.46 87.34,12.18 105.08,-71.87 47.43,-93.9 -32.23,-12.32 -58.81,-5.09 -52.03,-46.01z"/>
  <path class="fil0" d="M4249.83 2312.21c-56.63,23.67 -21.39,-26.34 -91.06,-16.29 14.38,75.17 112.16,54.58 127.57,23.76 16.86,-33.74 -5.51,-56.99 -28.36,-67.35 -30.59,-13.87 -56.97,-7.33 -50.75,-46.13 55.51,-11.25 12.7,21.48 80.79,22.1 -7.08,-32.55 -15.44,-46.44 -46.41,-51.66 -29.39,-4.94 -61.22,5.78 -70.18,23.19 -17.35,33.64 1.58,57.49 25.16,67.56 36.13,15.42 56.26,4.23 53.24,44.82z"/>
  <path class="fil0" d="M5267.06 2295.42c23.15,91.39 161.37,51.79 127.3,-18.65 -16.89,-34.92 -74.88,-26.83 -79.47,-53.33 -3.24,-18.71 17.56,-24.38 31.41,-15.5 26.77,17.13 -8.25,20.51 50.11,20.13 -16.12,-81.43 -110.93,-57.62 -121.08,-16.28 -19.77,80.52 89.3,36.7 82.25,100.42 -56.49,26.34 -18.09,-24.42 -90.51,-16.79z"/>
  <path class="fil0" d="M4101.8 2314.77c-63.65,17.93 -20.61,-21.56 -89.84,-20.66 9.04,67.49 99.43,64.94 124.92,27.05 19.22,-28.54 -0.36,-56.84 -20.29,-66.72 -33.89,-16.82 -60.76,-2.62 -57.73,-45.96 7.03,-2.45 10.42,-4.48 17.87,-4.47 37.14,0.1 -3.51,24.78 62.71,23.84 -10.06,-72.13 -101.18,-62.96 -118.1,-21.25 -32.3,79.66 94.45,47.89 80.46,108.16z"/>
  <path class="fil0" d="M4815.49 2215.6l14.26 51.61 -33.53 0.12 19.27 -51.73zm-35.73 104.42c2.51,-6.25 4.44,-13 7.6,-22.29l52.33 -0.12 19.67 45.38 35.15 0.36c-6.65,-29.79 -45.17,-151.87 -64.17,-165.4l-34.83 0.17 -61.97 165.26 32.95 -0.16 13.27 -23.21z"/>
  <path class="fil0" d="M4615.58 2285.6c-15.44,17.38 -16.24,40.51 -50.07,31.82 -41.93,-10.78 -41.52,-101.12 0.51,-112.75 34.81,-9.62 36.7,13.69 49.57,30.24l32.16 -0.53c-6.88,-84.88 -155.81,-84.16 -152.27,31.45 3.13,102.29 141.07,110.89 151.89,20.11l-31.78 -0.34z"/>
  <path class="fil0" d="M6728.4 2230.96c6.85,-10.94 15.8,-45.71 40.52,-22.75 28.43,26.39 -29.53,71.98 -49.52,89.68 -19.58,17.36 -25.91,15.21 -28.15,45.44l124.16 -0.26 -0.53 -24.61c-16.26,-9.07 -36.54,-3.06 -60.65,-7.5 118.31,-96.54 42.55,-151.34 -20.68,-132.61 -25.57,7.58 -33.78,22.04 -38.63,52.87l33.49 -0.25z"/>
  <path class="fil0" d="M6481.83 589.06l46.17 2.87c6.04,33.57 -9.64,39.47 -45.84,33.63l-0.33 -36.5zm-32.93 120.99l32.68 -1.39 0.38 -57.51 34.04 0.75c9.14,15.53 11.44,33.51 16.41,57.02l35.19 1.49c-10.1,-33.25 -3.41,-49.4 -26.88,-66.93l13.94 -13.95c17.08,-20.97 11.89,-44.87 -2.13,-56.24 -20.77,-16.85 -75.38,-11.24 -103.58,-10.58l-0.05 147.35z"/>
  <path class="fil0" d="M2645.41 2343.01c47.14,0.66 46.23,6.67 60.37,-36.44 4.22,-12.87 9.84,-27.11 15.39,-42.47 10.17,-28.14 21.33,-58.15 29.93,-84.87l-39.13 -1.15 -40.27 130.58c-21.19,-32.65 -27.83,-100.17 -47.07,-129.84l-36.25 -0.96 57.02 165.16z"/>
  <path class="fil0" d="M6281.66 1079.68c-69.39,-13.87 -160.32,9.12 -282.07,-92.98 -186.78,-156.62 -250.09,-462.21 -47.13,-651.66 18.75,-17.5 75.38,-65.96 111.38,-73.79 -34.9,9.91 -91.75,49.34 -115.21,70.36 -30.48,27.29 -61.5,60.92 -87.21,104.04 -136.98,229.73 29.95,668.63 420.23,644.03z"/>
  <path class="fil0" d="M6337.36 596.97l12.34 43.37 -28.99 -0.08 16.66 -43.29zm-73.47 112.9l34.31 0.27 13.13 -41.01 45.58 -0.5 16.97 41.54 34.31 -0.6c-7.01,-30.22 -41.02,-123.69 -54.03,-147.1l-35.77 -0.18c-11.04,19.12 -49.85,122.9 -54.5,147.56z"/>
  <path class="fil0" d="M6518.24 994.51l50.14 -31.96c113.57,-103.49 148.42,-287.98 113.01,-437.02 -41.02,-172.57 -193.36,-309.67 -355,-307.83 36.8,16.47 193.01,18.82 293.43,189.32 68.51,116.31 79.08,272.84 36.42,399.78 -21.53,64.08 -82.86,161.58 -138,187.71z"/>
  <path class="fil0" d="M6230.3 658.49c-51.53,-0.06 -21.17,-1.99 -51.53,28.24 -59.73,0.4 -60.76,-65.85 -33.64,-95.27 13.53,-6.41 23.8,-12.37 39.92,0.4 24.79,19.65 -6.15,19.81 45.61,19.94 -13.72,-82.91 -134.35,-64.16 -135.41,23.35 -1.15,94.97 119.63,104.26 135.06,23.34z"/>
  <path class="fil0" d="M6843.99 2184.96l0.66 22.79 82.26 0.03 -69.4 132.72 41.84 3.35c15.98,-43.2 74.38,-123.11 75.27,-165.82 -22.1,-0.05 -44.23,0.08 -66.33,-0.07 -19.92,-0.14 -48.36,-4.63 -64.31,7z"/>
  <path class="fil0" d="M5967.87 710.04l40.85 0.14c10.19,-29.27 48.48,-122.19 49.68,-147.81l-29.56 0.14 -39.27 117.31c-43.04,-83.15 -3.87,-116.52 -71.66,-117.77l49.96 148z"/>
  <path class="fil1" d="M1253.26 1185.47c-110.08,72.87 -158.71,-4.93 -194.97,-9.64 1.76,15.81 -3.38,17.32 39.98,39.95 64.2,33.51 158.68,9.93 179.32,-34.99 -34.08,-35.22 -48.98,-17.84 -77.36,-73.01 -26.29,-51.14 -0.4,-104.89 -9.29,-123.94 -33.87,16.29 -23.47,89.26 -10.36,120.29 16.6,39.31 42.5,59.67 72.68,81.35z"/>
  <path class="fil0" d="M6552.94 2207.3l0.44 33.97 48.05 -22.53 0.38 122.89 37.45 0.41 -0.07 -161.47c-38.26,-7.05 -59.56,15.76 -86.25,26.73z"/>
  <path class="fil1" d="M629.22 1186.59c28.43,69.85 213.21,63 218.5,-5.56 -28.13,6.7 -86.87,79.52 -192.96,14.56 25.39,-28.9 46.31,-15.64 76.72,-73.82 17.67,-33.81 32.06,-88.89 6.7,-123.13 -14.97,22.21 17.08,111.84 -61.48,161.25 -18.14,11.41 -35.52,15.85 -47.49,26.7z"/>
  <polygon class="fil0" points="4676.74,2343.29 4715.05,2343.01 4714.97,2178.4 4676.93,2177.89 "/>
  <path class="fil1" d="M967.91 857.6c-26.21,12.02 -28.8,13.53 -49.96,-1.86 -23.44,-62.81 60.44,-134.5 78.11,-155.48 -41.24,15.84 -73.49,52.06 -95.58,97.39 -35.63,73.11 19.22,111.46 67.43,59.95z"/>
  <path class="fil1" d="M893.64 936.88c-24.98,-8.94 -102.59,16.02 -155.3,-63.85 -9.83,-14.89 -11.38,-42.45 -29.18,-51.98 -21,37.29 39.97,91.32 58.64,103.76 22.96,15.31 105.9,49.28 125.83,12.06z"/>
  <path class="fil0" d="M6079.95 2351.3c27.61,-0.63 23.74,-8.76 31.85,-34.31l47.5 -145.09c-31.05,0.06 -24.44,6.63 -34.02,36.91l-45.34 142.49z"/>
  <polyline class="fil2" points="6528,591.93 6481.83,589.06 6482.16,625.57 "/>
  <path class="fil3" d="M3064.55 2294.25c-18.36,-18.59 -25.55,3.21 -29.43,-28.02 4.24,-2.32 3.91,-3.62 13.37,-5.36 3.26,-0.6 13.19,-0.64 16.94,-0.72 12.9,-0.24 22.99,0.11 35.32,-0.75l-0.13 82.42 -27.3 -4.09c11.5,11.35 24.57,14.47 29.48,0.62l3.73 -13.72c8.88,-77.74 -11.66,-70.88 -40.8,-70.47 -19.24,0.27 -19.31,-1.86 -36.35,6.23l0.55 23.25c17.36,13.35 9.86,8.17 34.61,10.6z"/>
  <path class="fil0" d="M5457.8 2272.03c5.43,16.22 -4.46,15.18 28.44,15.38 35.03,0.22 23.44,0.71 28.81,-15.38 -14.41,-9.52 -43.27,-9.19 -57.24,0z"/>
 </g>
</svg>
